<?xml version="1.0" encoding="UTF-8" standalone="no"?>
<svg width="22px" height="22px" viewBox="0 0 22 22" version="1.1" xmlns="http://www.w3.org/2000/svg" xmlns:xlink="http://www.w3.org/1999/xlink">
    <!-- Generator: Sketch 3.8.3 (29802) - http://www.bohemiancoding.com/sketch -->
    <title>globe</title>
    <desc>Created with Sketch.</desc>
    <defs></defs>
    <g id="Page-1" stroke="none" stroke-width="1" fill="none" fill-rule="evenodd">
        <g id="globe" transform="translate(1.000000, 1.000000)">
            <g id="Ebene_1">
                <path d="M19.9502488,9.97343284 C19.9502488,15.4564179 15.5051741,19.9014925 10.0218905,19.9014925 C4.53860697,19.9014925 0.0932338308,15.4565174 0.0932338308,9.97343284 L0.0932338308,9.97343284 C0.0932338308,4.49014925 4.53850746,0.0450746269 10.0218905,0.0450746269 C15.5052736,0.0450746269 19.9502488,4.49014925 19.9502488,9.97343284 L19.9502488,9.97343284 Z" id="Shape" stroke="#CCCCCC" stroke-width="0.75" fill="#FFFFFF"></path>
                <path d="M9.27074627,19.320796 C9.22049751,19.3132338 9.17741294,19.2887562 9.17432836,19.2673632 C9.17164179,19.2454726 9.1680597,19.2124378 9.16587065,19.1935323 C9.16049751,19.1473632 8.9280597,18.9437811 8.77552239,18.8514428 C8.69850746,18.8052736 8.63681592,18.7343284 8.61154229,18.6633831 C8.58875622,18.6006965 8.55810945,18.5492537 8.54348259,18.5492537 C8.52915423,18.5492537 8.51751244,18.5278607 8.51751244,18.501592 C8.51751244,18.4750249 8.48597015,18.4318408 8.44756219,18.4043781 C8.40945274,18.3778109 8.38756219,18.339801 8.39970149,18.3202985 C8.41333333,18.298408 8.40189055,18.2926368 8.37004975,18.3044776 C8.33243781,18.3193035 8.31880597,18.3024876 8.31880597,18.2440796 C8.31880597,18.1935323 8.26169154,18.1043781 8.16597015,18.0037811 C8.0080597,17.8399005 7.94029851,17.638408 8.01174129,17.5475622 C8.02995025,17.5247761 8.05422886,17.4654726 8.06636816,17.4157214 C8.07830846,17.3661692 8.13273632,17.2923383 8.18686567,17.2519403 C8.30447761,17.1651741 8.3078607,17.1331343 8.2160199,16.9776119 C8.17761194,16.9125373 8.15502488,16.8370149 8.16597015,16.8085572 C8.17661692,16.7808955 8.1239801,16.6312438 8.04865672,16.4772139 C7.94706468,16.2678607 7.86477612,16.1531343 7.72606965,16.0263682 C7.55870647,15.8738308 7.39084577,15.6429851 7.39084577,15.5650746 C7.39084577,15.5492537 7.41343284,15.5354229 7.44059701,15.5354229 C7.47432836,15.5354229 7.49064677,15.5008955 7.49134328,15.4280597 C7.4920398,15.3687562 7.51412935,15.2915423 7.54109453,15.2560199 C7.62756219,15.141393 7.57651741,14.9063682 7.48477612,14.9975124 C7.46218905,15.0204975 7.42457711,15.038806 7.40049751,15.038806 C7.33950249,15.038806 7.34706468,14.941592 7.41024876,14.9175124 C7.50616915,14.880597 7.38666667,14.840995 7.17562189,14.8400995 C7.06626866,14.839602 6.9600995,14.8279602 6.93970149,14.8148259 C6.91930348,14.8008955 6.86318408,14.7128358 6.8158209,14.618209 C6.74,14.4678607 6.71253731,14.4427861 6.6039801,14.4223881 C6.43731343,14.3911443 6.23283582,14.3915423 5.93323383,14.4236816 C5.70029851,14.4489552 5.67402985,14.4447761 5.51900498,14.3616915 C5.39074627,14.2932338 5.28945274,14.2688557 5.07174129,14.2546269 C4.74935323,14.2329353 4.72238806,14.2159204 4.43283582,13.8464677 C4.339801,13.7281592 4.19572139,13.5687562 4.11293532,13.4918408 C4.01402985,13.4 3.97472637,13.3433831 3.99900498,13.3261692 C4.05830846,13.2848756 4.01333333,13.1018905 3.91741294,12.9940299 C3.86905473,12.939602 3.81054726,12.8672637 3.78766169,12.8332338 C3.76457711,12.7985075 3.71552239,12.7256716 3.67860697,12.6714428 C3.62885572,12.5976119 3.61791045,12.5465672 3.63562189,12.4727363 C3.64895522,12.4178109 3.66109453,12.2991045 3.66189055,12.2079602 C3.66308458,12.1022886 3.68278607,12.0247761 3.71631841,11.9927363 C3.78606965,11.9266667 3.85452736,11.760995 3.81223881,11.760995 C3.79452736,11.760995 3.7799005,11.7163184 3.7799005,11.661393 C3.7799005,11.6069652 3.79273632,11.5622886 3.80855721,11.5622886 C3.82437811,11.5622886 3.83552239,11.5883582 3.83353234,11.6200995 C3.82457711,11.7503483 3.89064677,11.7002985 3.90278607,11.5674627 C3.91174129,11.4714428 3.90447761,11.4306468 3.88119403,11.4454726 C3.83701493,11.4724378 3.83651741,11.4797015 3.89572139,11.198209 C3.9360199,11.0059701 3.97174129,10.9316418 4.08646766,10.7985075 C4.1639801,10.7084577 4.25333333,10.6267662 4.28517413,10.6166169 C4.31721393,10.6063682 4.34298507,10.5763184 4.34298507,10.5490547 C4.34298507,10.4610945 4.44358209,10.3451741 4.53631841,10.3267662 C4.5878607,10.3164179 4.64736318,10.2716418 4.67283582,10.2242786 C4.7080597,10.1587065 4.73522388,10.1443781 4.79522388,10.159204 C4.84308458,10.1716418 4.87323383,10.1643781 4.87323383,10.1406965 C4.87323383,10.119801 4.89174129,10.1054726 4.91452736,10.1094527 C4.93731343,10.1130348 4.97840796,10.1065672 5.00567164,10.0949254 C5.03283582,10.0834826 5.09432836,10.0600995 5.14169154,10.0426866 C5.20825871,10.018408 5.23283582,9.98149254 5.24885572,9.88378109 C5.27681592,9.70766169 5.47572139,9.50527363 5.67174129,9.45333333 C5.85761194,9.40427861 5.99631841,9.23253731 5.97343284,9.07900498 C5.96348259,9.01024876 5.940199,8.97960199 5.89810945,8.97960199 C5.86487562,8.97960199 5.82865672,8.96457711 5.81741294,8.94656716 C5.80597015,8.92835821 5.7680597,8.91333333 5.73243781,8.91333333 C5.6561194,8.91333333 5.65323383,8.88656716 5.71910448,8.79890547 C5.75024876,8.75781095 5.76089552,8.69731343 5.74875622,8.63273632 C5.73373134,8.5518408 5.75044776,8.50447761 5.83084577,8.40338308 C5.9360199,8.27124378 5.99870647,8.10049751 5.99920398,7.94616915 C5.99940299,7.86895522 6.01860697,7.85114428 6.13522388,7.81960199 C6.2479602,7.78945274 6.28069652,7.7919403 6.3280597,7.83492537 C6.35960199,7.86338308 6.40746269,7.88666667 6.43422886,7.88666667 C6.46119403,7.88666667 6.49761194,7.90169154 6.51562189,7.91950249 C6.53333333,7.93721393 6.62228856,7.97462687 6.71263682,8.00208955 C6.87054726,8.05014925 6.879801,8.04945274 6.93422886,7.9840796 C6.96557214,7.94646766 7.00099502,7.86427861 7.01243781,7.80189055 C7.03741294,7.66925373 7.0041791,7.45671642 6.95850746,7.45671642 C6.94129353,7.45671642 6.92696517,7.4360199 6.92696517,7.41034826 C6.92696517,7.38487562 6.90457711,7.35572139 6.87721393,7.34497512 C6.84825871,7.33383085 6.82766169,7.28427861 6.82766169,7.22567164 C6.82766169,7.13094527 6.83492537,7.12537313 6.95741294,7.12537313 C7.02905473,7.12537313 7.09562189,7.1440796 7.10636816,7.16686567 C7.11681592,7.18965174 7.1161194,7.17223881 7.10517413,7.12875622 C7.08935323,7.06606965 7.09621891,7.05343284 7.13651741,7.06895522 C7.16467662,7.0799005 7.19383085,7.07094527 7.20189055,7.04905473 C7.21134328,7.02189055 7.23691542,7.0279602 7.28328358,7.06945274 C7.34746269,7.12626866 7.35741294,7.12656716 7.47860697,7.07333333 L7.60636816,7.01701493 L7.49024876,6.9880597 C7.42656716,6.97223881 7.26258706,6.95353234 7.12587065,6.94626866 C6.98905473,6.93950249 6.85114428,6.9319403 6.81950249,6.93024876 C6.72965174,6.92487562 6.75124378,6.87124378 6.85233831,6.84865672 C6.90258706,6.83751244 6.97333333,6.80517413 7.00995025,6.77701493 C7.06368159,6.73522388 7.06726368,6.72039801 7.02985075,6.69711443 C6.96885572,6.65970149 7.00825871,6.56278607 7.08477612,6.56278607 C7.12895522,6.56278607 7.14477612,6.53820896 7.14378109,6.4719403 C7.14278607,6.3920398 7.15402985,6.38208955 7.23343284,6.39054726 C7.31412935,6.39880597 7.3240796,6.38935323 7.32089552,6.30766169 C7.31870647,6.25134328 7.31114428,6.23791045 7.30199005,6.27293532 C7.29373134,6.30497512 7.2640796,6.33074627 7.2361194,6.33074627 C7.20477612,6.33074627 7.19243781,6.3120398 7.20378109,6.28169154 C7.21960199,6.24059701 7.2120398,6.23920398 7.15761194,6.27323383 C7.12189055,6.2958209 7.09253731,6.34517413 7.09253731,6.38348259 C7.09253731,6.42159204 7.06656716,6.4758209 7.03452736,6.50368159 C6.96746269,6.56218905 6.69174129,6.60955224 6.59532338,6.57900498 C6.49671642,6.54766169 6.50835821,6.40507463 6.61333333,6.35701493 C6.66338308,6.33442786 6.69054726,6.30039801 6.6800995,6.27343284 C6.65412935,6.20587065 6.76169154,6.05920398 6.82079602,6.08149254 C6.84776119,6.0921393 6.89751244,6.0761194 6.93064677,6.04577114 C6.96567164,6.01422886 7.0241791,5.99791045 7.07034826,6.00666667 C7.12358209,6.01691542 7.16238806,6.00129353 7.1879602,5.96099502 C7.21154229,5.92338308 7.21323383,5.90029851 7.19253731,5.90029851 C7.13373134,5.90029851 7.15661692,5.83422886 7.21731343,5.83034826 C7.27243781,5.82646766 7.27243781,5.82577114 7.21731343,5.81144279 C7.13930348,5.79104478 7.1441791,5.75462687 7.23751244,5.65383085 C7.31771144,5.56706468 7.42427861,5.54039801 7.42427861,5.60666667 C7.42427861,5.63293532 7.43860697,5.6321393 7.47233831,5.60378109 C7.49880597,5.58189055 7.53721393,5.57393035 7.55731343,5.58656716 C7.57721393,5.59900498 7.62338308,5.58268657 7.65890547,5.55034826 C7.71064677,5.50348259 7.7320398,5.5000995 7.76437811,5.53283582 C7.79691542,5.56537313 7.78258706,5.59402985 7.69711443,5.67104478 C7.6040796,5.75482587 7.59820896,5.76825871 7.65562189,5.76825871 C7.74358209,5.76825871 7.74358209,5.87154229 7.65562189,5.95064677 C7.57890547,6.0200995 7.58756219,6.13263682 7.69253731,6.42318408 C7.76447761,6.62358209 7.7758209,6.84825871 7.71412935,6.86995025 C7.69134328,6.87820896 7.68258706,6.89542289 7.69442786,6.90835821 C7.73134328,6.94845771 7.90597015,6.83771144 8,6.71373134 C8.08139303,6.60706468 8.10517413,6.5959204 8.2519403,6.5959204 C8.43074627,6.5959204 8.43631841,6.58885572 8.4678607,6.33452736 C8.49263682,6.13731343 8.52029851,6.09771144 8.66925373,6.04666667 C8.7681592,6.01243781 8.80258706,6.01164179 8.82228856,6.04248756 C8.83711443,6.06577114 8.8480597,6.03761194 8.8480597,5.97492537 C8.84875622,5.8561194 8.80139303,5.83741294 8.69771144,5.9161194 C8.66228856,5.94288557 8.58865672,5.96517413 8.53373134,5.96567164 C8.38606965,5.96716418 8.34109453,5.87313433 8.36955224,5.62338308 C8.40039801,5.35522388 8.45243781,5.26268657 8.61462687,5.18975124 C8.68895522,5.15621891 8.74945274,5.11711443 8.74945274,5.10298507 C8.74945274,5.08845771 8.80189055,5.05781095 8.86606965,5.03492537 C8.94457711,5.00646766 9.02129353,4.93681592 9.10049751,4.82159204 C9.16557214,4.72756219 9.25452736,4.63134328 9.29870647,4.6080597 C9.34268657,4.5839801 9.37283582,4.55900498 9.36527363,4.55124378 C9.35771144,4.54368159 9.31910448,4.55512438 9.27950249,4.57621891 C9.2399005,4.59731343 9.19960199,4.60686567 9.18985075,4.59711443 C9.16358209,4.57064677 9.37880597,4.38119403 9.51751244,4.30925373 C9.58457711,4.27452736 9.64845771,4.23104478 9.6600995,4.21253731 C9.67154229,4.19383085 9.72467662,4.17850746 9.77840796,4.17850746 C9.8318408,4.17850746 9.8758209,4.16656716 9.8758209,4.15223881 C9.8758209,4.11313433 10.0735323,4.05363184 10.2120398,4.05094527 C10.2966169,4.04925373 10.3591045,4.07303483 10.420796,4.13034826 C10.4693532,4.17532338 10.5306468,4.21174129 10.5568159,4.21174129 C10.5832836,4.21174129 10.6048756,4.22676617 10.6048756,4.24497512 C10.6048756,4.26318408 10.6342289,4.27800995 10.6704478,4.27800995 C10.7877612,4.27800995 11.1606965,4.45044776 11.1991045,4.52258706 C11.2206965,4.56218905 11.2726368,4.59452736 11.320597,4.59741294 C11.3978109,4.60199005 11.4,4.59791045 11.3523383,4.54517413 C11.3239801,4.51363184 11.300597,4.46308458 11.300597,4.43273632 C11.300597,4.40208955 11.2852736,4.37711443 11.2672637,4.37711443 C11.2490547,4.37711443 11.2340299,4.35333333 11.2340299,4.3238806 C11.2340299,4.28278607 11.258806,4.27383085 11.3418905,4.28597015 C11.4008955,4.29402985 11.4755224,4.3119403 11.5070647,4.32577114 C11.5495522,4.34427861 11.5957214,4.31552239 11.6858706,4.21572139 C11.7642786,4.1280597 11.8463682,4.07313433 11.9183085,4.05950249 C12.1309453,4.0199005 12.0065672,3.880199 11.780796,3.90547264 C11.6921393,3.91542289 11.6063682,3.90228856 11.5400995,3.8678607 C11.4528358,3.82288557 11.4339303,3.79064677 11.4172139,3.65721393 C11.4062687,3.57074627 11.3887562,3.46258706 11.3785075,3.41721393 C11.338209,3.23522388 11.3564179,3.14248756 11.4453731,3.07781095 C11.4931343,3.04278607 11.5328358,2.9920398 11.5328358,2.96487562 C11.5328358,2.93552239 11.5563184,2.920199 11.5906468,2.92726368 C11.6360199,2.93621891 11.6457711,2.9641791 11.6358209,3.05402985 C11.6285572,3.11721393 11.6212935,3.27820896 11.62,3.41233831 C11.6174129,3.62706468 11.6258706,3.66328358 11.6919403,3.71671642 C11.7905473,3.79641791 12.079204,3.85054726 12.2453731,3.82039801 L12.37801,3.7961194 L12.2866667,3.71691542 C12.2366169,3.67293532 12.1958209,3.60756219 12.1958209,3.57114428 C12.1958209,3.53472637 12.1749254,3.48179104 12.1496517,3.45283582 C12.1241791,3.4241791 12.0928358,3.35004975 12.0797015,3.28835821 C12.0569154,3.18069652 12.0593035,3.17731343 12.140199,3.19751244 C12.2135323,3.21572139 12.2256716,3.20696517 12.2349254,3.1280597 L12.2452736,3.03721393 L12.319602,3.11761194 C12.3800995,3.18248756 12.3942289,3.18736318 12.3942289,3.14189055 C12.3942289,3.11124378 12.3779104,3.08597015 12.3575124,3.08597015 C12.3359204,3.08597015 12.3268657,3.05144279 12.3364179,3.00308458 C12.3448756,2.95761194 12.3404975,2.920199 12.3263682,2.920199 C12.3120398,2.920199 12.2911443,2.85701493 12.2795025,2.77950249 C12.2369154,2.49920398 12.2240796,2.46348259 12.1604975,2.44666667 C12.0696517,2.42288557 12.0779104,2.32467662 12.1707463,2.32328358 C12.2431841,2.32208955 12.2432836,2.32109453 12.1787065,2.28487562 C12.1425871,2.2641791 12.1014925,2.23094527 12.0883582,2.21124378 C12.0716418,2.18626866 12.0638806,2.18597015 12.0633831,2.21054726 C12.0628856,2.22995025 11.9673632,2.26497512 11.8510448,2.2880597 C11.6277612,2.33253731 11.5561194,2.31721393 11.4639801,2.20477612 C11.4204975,2.15233831 11.4258706,2.14935323 11.5300498,2.16975124 C11.6085572,2.18557214 11.6675622,2.17631841 11.7236816,2.13960199 C11.7717413,2.1080597 11.8359204,2.09462687 11.8839801,2.10676617 C11.9313433,2.11870647 11.9636816,2.1121393 11.9636816,2.09124378 C11.9636816,2.06766169 12.0134328,2.06278607 12.1079602,2.07691542 C12.2227861,2.09393035 12.2563184,2.0878607 12.2726368,2.04606965 C12.2976119,1.98049751 12.3962189,1.97930348 12.6010945,2.04149254 C12.7538308,2.0881592 12.7585075,2.08736318 12.7585075,2.0199005 C12.7585075,1.98179104 12.7844776,1.93124378 12.8165174,1.90666667 C12.8692537,1.86656716 12.8665672,1.86248756 12.7853731,1.86149254 C12.6795025,1.86029851 12.6556219,1.83114428 12.681194,1.73343284 C12.6964179,1.67542289 12.7253731,1.66099502 12.8368159,1.65910448 C12.9121393,1.65741294 12.9551244,1.64885572 12.9325373,1.63970149 C12.9095522,1.63044776 12.8910448,1.60248756 12.8910448,1.57701493 C12.8910448,1.45751244 12.5509453,1.36278607 12.4355224,1.44995025 C12.318209,1.53890547 12.0959204,1.48298507 12.0959204,1.36447761 C12.0959204,1.32945274 12.081194,1.2920398 12.0628856,1.28089552 C12.0033831,1.2441791 12.0278607,1.16497512 12.0993035,1.16497512 C12.1408955,1.16497512 12.1756219,1.19144279 12.1860697,1.23104478 C12.1955224,1.26726368 12.2191045,1.29741294 12.238209,1.29741294 C12.2574129,1.29741294 12.300199,1.32218905 12.3329353,1.3518408 C12.3888557,1.40208955 12.3946269,1.40208955 12.4138308,1.3518408 C12.4251741,1.32218905 12.4553234,1.29741294 12.4808955,1.29741294 C12.5358209,1.29741294 12.541791,1.24447761 12.4911443,1.21283582 C12.4712438,1.20069652 12.4624876,1.16308458 12.4712438,1.12955224 C12.4825871,1.08587065 12.4547264,1.04915423 12.3745274,1.00179104 C12.2612935,0.935024876 12.2265672,0.868457711 12.3032836,0.865472637 C12.3708458,0.86278607 12.0572139,0.711741294 11.9309453,0.685472637 C11.8669652,0.672338308 11.6508458,0.582487562 11.4504478,0.485771144 C11.2497512,0.389054726 11.0522388,0.300199005 11.0112438,0.288059701 C10.9273632,0.263482587 10.9101493,0.204477612 10.9861692,0.204477612 C11.0133333,0.204477612 11.0360199,0.189452736 11.0360199,0.171442786 C11.0360199,0.153233831 11.058408,0.13840796 11.0855721,0.13840796 C11.1129353,0.13840796 11.1351244,0.153233831 11.1351244,0.171442786 C11.1351244,0.189452736 11.1761194,0.204676617 11.2264677,0.204676617 C11.2762189,0.204875622 11.3621891,0.228457711 11.4169154,0.257412935 C11.5505473,0.327661692 11.8640796,0.361094527 11.8640796,0.305074627 C11.8640796,0.279104478 11.8859701,0.272039801 11.9221891,0.286169154 C11.9539303,0.298308458 12.1515423,0.344676617 12.3610945,0.389651741 C12.5704478,0.434129353 12.7719403,0.484676617 12.8083582,0.50159204 C12.9713433,0.578109453 13.1363184,0.634925373 13.1951244,0.634925373 C13.2303483,0.634925373 13.3031841,0.657711443 13.3566169,0.685472637 C13.4445771,0.730945274 13.4542289,0.730945274 13.4542289,0.685472637 C13.4542289,0.657810945 13.4695522,0.634925373 13.4877612,0.634925373 C13.5057711,0.634925373 13.520796,0.657512438 13.520796,0.684477612 C13.520796,0.711641791 13.5468657,0.734228856 13.5791045,0.734228856 C13.6114428,0.734228856 13.7193035,0.765373134 13.819403,0.803482587 C13.919204,0.841393035 14.0540299,0.883681592 14.1189055,0.89721393 C14.2515423,0.924378109 14.580796,1.09442786 14.580796,1.1360199 C14.580796,1.17363184 14.2032836,1.08985075 13.901791,0.985174129 C13.8653731,0.972338308 13.8914428,0.996318408 13.959403,1.03840796 C14.0273632,1.08049751 14.0834826,1.13383085 14.0834826,1.15671642 C14.0837811,1.17930348 14.0993035,1.19800995 14.1178109,1.19800995 C14.1363184,1.19800995 14.2150249,1.25562189 14.2917413,1.32656716 C14.3686567,1.39751244 14.5882587,1.54855721 14.7797015,1.66208955 C14.9711443,1.7758209 15.1742289,1.91303483 15.2315423,1.96696517 C15.2971144,2.02895522 15.3437811,2.05174129 15.3577114,2.02915423 C15.3899502,1.97691542 15.3489552,1.92666667 15.2921393,1.94845771 C15.2461692,1.96597015 15.238408,1.95383085 15.2304478,1.85223881 C15.2286567,1.82945274 15.2043781,1.79343284 15.1775124,1.77233831 C15.0781095,1.69482587 15.1753234,1.69313433 15.3976119,1.76746269 C15.6290547,1.84517413 15.6976119,1.8918408 15.6366169,1.92925373 C15.6164179,1.94208955 15.6251741,1.95910448 15.65801,1.9720398 C15.6886567,1.98368159 15.7276617,1.98447761 15.7449751,1.97373134 C15.7624876,1.96278607 15.7971144,1.97104478 15.8226866,1.9919403 C15.8481592,2.01333333 15.9147264,2.03154229 15.9708458,2.03303483 C16.0448756,2.03542289 16.0704478,2.05054726 16.0641791,2.08915423 C16.058806,2.12368159 16.080398,2.14238806 16.1275622,2.14308458 C16.2135323,2.14427861 16.5361194,2.40666667 16.5361194,2.47512438 C16.5361194,2.54238806 16.4901493,2.53412935 16.4171144,2.45353234 C16.3825871,2.41542289 16.3245771,2.36995025 16.2878607,2.35243781 C16.2094527,2.31502488 16.4022886,2.49333333 16.6921393,2.72577114 C16.8108458,2.82099502 16.940398,2.96358209 16.99801,3.06298507 C17.1016915,3.2400995 17.500796,3.6678607 17.699005,3.81412935 L17.8110448,3.89701493 L17.6866667,3.72696517 C17.5571144,3.54965174 17.5425871,3.5161194 17.5933333,3.5161194 C17.6370149,3.5161194 18.2066667,4.27452736 18.181393,4.29930348 C18.1697512,4.31074627 18.1377114,4.30129353 18.1099502,4.27820896 C18.0393035,4.21940299 18.0472637,4.25323383 18.1257711,4.34378109 C18.1910448,4.41960199 18.2109453,4.47621891 18.1719403,4.47621891 C18.160796,4.47621891 18.0749254,4.39432836 17.980995,4.29422886 C17.8869652,4.19442786 17.7964179,4.11223881 17.78,4.11223881 C17.7634826,4.11223881 17.7204975,4.08626866 17.6845771,4.05442786 C17.620199,3.99731343 17.620199,3.99761194 17.6745274,4.1039801 C17.7104478,4.17373134 17.7163184,4.21134328 17.6920398,4.21134328 C17.6714428,4.21134328 17.6633831,4.23492537 17.6740299,4.26288557 C17.6869652,4.29641791 17.680597,4.30636816 17.6563184,4.29084577 C17.58,4.2441791 17.6650746,4.34208955 17.7576119,4.40766169 L17.8513433,4.47472637 L17.84,4.3761194 C17.8216915,4.21820896 17.8846766,4.26199005 17.9964179,4.48497512 C18.1295522,4.75074627 18.1612935,4.79054726 18.1943284,4.73691542 C18.2121393,4.70845771 18.2694527,4.75024876 18.3797015,4.8719403 C18.5595025,5.06965174 18.6459701,5.19840796 18.7941294,5.48656716 C18.8504478,5.59562189 18.9277612,5.71761194 18.9662687,5.75691542 C19.0828856,5.87572139 19.1210945,5.92985075 19.1708458,6.04935323 C19.2340299,6.19970149 19.2330348,6.27741294 19.1679602,6.25243781 C19.1290547,6.23741294 19.1242786,6.24616915 19.1483582,6.29034826 C19.1920398,6.37273632 19.3181095,6.98686567 19.3181095,7.11771144 C19.3181095,7.17870647 19.3504478,7.29840796 19.3900498,7.3839801 C19.4705473,7.55840796 19.5137313,7.88686567 19.4561194,7.88686567 C19.4365174,7.88686567 19.4036816,7.82368159 19.3836816,7.74616915 C19.3241791,7.5159204 19.3127363,7.48378109 19.2967164,7.50029851 C19.2882587,7.50875622 19.3028856,7.63144279 19.3300498,7.77363184 C19.3747264,8.00975124 19.3909453,8.04308458 19.5243781,8.16646766 C19.7114428,8.33920398 19.7682587,8.54109453 19.7979104,9.13721393 C19.8168159,9.52248756 19.8134328,9.5759204 19.7674627,9.5759204 C19.7391045,9.5759204 19.7155224,9.55353234 19.7155224,9.52636816 C19.7155224,9.49890547 19.6931343,9.47661692 19.6662687,9.47661692 C19.6391045,9.47661692 19.6167164,9.45422886 19.6167164,9.42726368 C19.6167164,9.35293532 19.5581095,9.36726368 19.5326368,9.44746269 C19.5054726,9.53323383 19.5447761,9.87432836 19.5816915,9.87432836 C19.5967164,9.87432836 19.6183085,9.93800995 19.6299502,10.0154229 C19.6452736,10.1152239 19.6722388,10.1667662 19.721791,10.1893532 C19.8688557,10.2569154 19.9447761,10.8666667 19.8683582,11.3634826 C19.841592,11.5359204 19.8037811,11.6823881 19.7842786,11.6891542 C19.7648756,11.6953234 19.7488557,11.7221891 19.7488557,11.7474627 C19.7488557,11.7735323 19.7338308,11.7946269 19.7155224,11.7946269 C19.6973134,11.7946269 19.6824876,11.7720398 19.6824876,11.7445771 C19.6824876,11.6818905 19.5457711,11.3845771 19.5100498,11.3694527 C19.4665672,11.3512438 19.480199,11.2912438 19.5370149,11.2497512 C19.5841791,11.2152239 19.5804975,11.2042786 19.5036816,11.1542289 C19.3938308,11.0820896 19.3922388,10.9686567 19.498806,10.8685572 C19.5675622,10.8039801 19.5891542,10.798607 19.6322388,10.8340299 C19.660597,10.8576119 19.6929353,10.8675622 19.7046766,10.8559204 C19.738209,10.8221891 19.6123383,10.4040796 19.5686567,10.4040796 C19.5458706,10.4040796 19.5042786,10.2941294 19.4714428,10.1475622 C19.3725373,9.70427861 19.3443781,9.59830846 19.2732338,9.39432836 L19.2032836,9.19562189 L19.1692537,9.37512438 C19.1364179,9.54587065 19.0674627,9.63283582 19.0397015,9.53791045 C19.0327363,9.51363184 19.0095522,9.43024876 18.9886567,9.35303483 C18.9675622,9.27552239 18.9379104,9.21233831 18.9228856,9.21233831 C18.9073632,9.21233831 18.83801,9.1600995 18.7683582,9.09641791 C18.6989055,9.03223881 18.6335323,8.98049751 18.6235821,8.98099502 C18.5885572,8.98199005 18.3898507,9.45154229 18.3898507,9.53263682 C18.3898507,9.57711443 18.3689552,9.68328358 18.3436816,9.76895522 C18.2887562,9.95432836 18.21801,10.3566169 18.221393,10.4651741 C18.2226866,10.5077612 18.1878607,10.6170149 18.1441791,10.7085572 C18.0706468,10.8623881 18.0678607,10.8832836 18.1119403,10.9877612 C18.1377114,11.0501493 18.1606965,11.1714428 18.1624876,11.2576119 C18.1665672,11.4446766 18.2135323,11.619403 18.2695522,11.6540299 C18.3524378,11.7050746 18.4559204,11.8911443 18.4559204,11.9890547 C18.4559204,12.1149254 18.3968159,12.2486567 18.3297512,12.2742289 C18.2621891,12.300199 18.2296517,12.2418905 18.2032836,12.0494527 C18.1795025,11.8738308 18.1372139,11.8799005 18.0765174,12.0679602 C18.0497512,12.1500498 18.0227861,12.1758209 17.961592,12.1758209 C17.898209,12.1758209 17.86199,12.138209 17.7874627,11.9936318 C17.7356219,11.8938308 17.678607,11.8065672 17.660199,11.800796 C17.6416915,11.7945274 17.5902488,11.7126368 17.5455721,11.618607 C17.5008955,11.5246766 17.4279602,11.4092537 17.3842786,11.3623881 C17.340597,11.3157214 17.2946269,11.2447761 17.281791,11.2051741 C17.2691542,11.1656716 17.2436816,11.1330348 17.2246766,11.1330348 C17.2058706,11.1330348 17.19801,11.1126368 17.2077612,11.0873632 C17.2175124,11.0620896 17.1894527,10.9884577 17.1449751,10.9235821 C17.1008955,10.8587065 17.0650746,10.7906468 17.0650746,10.7724378 C17.0650746,10.7539303 17.0108458,10.7461692 16.9397015,10.7546269 C16.8556219,10.7648756 16.7723383,10.7481592 16.6846766,10.7030846 C16.6127363,10.6664677 16.5345274,10.6363184 16.5112438,10.6363184 C16.4879602,10.6363184 16.4684577,10.6151244 16.4684577,10.5893532 C16.4684577,10.5633831 16.4227861,10.5323383 16.3668657,10.520199 C16.3109453,10.5077612 16.2573134,10.4765174 16.2473632,10.4504478 C16.2371144,10.4244776 16.1993035,10.3867662 16.1627861,10.3676617 C16.1106468,10.34 16.0773134,10.3454726 16.0092537,10.3950249 C15.9614925,10.4295522 15.8696517,10.4791045 15.8061692,10.5043781 C15.7422886,10.5304478 15.661194,10.5777114 15.6254726,10.6110448 C15.5895522,10.6437811 15.5450746,10.6649751 15.5261692,10.658209 C15.5069652,10.6516418 15.4243781,10.6656716 15.3426866,10.6902488 C15.1571144,10.7461692 14.9708458,10.7480597 14.9185075,10.6958209 C14.860199,10.6378109 14.8658706,10.7473632 14.9272637,10.8656716 C14.9831841,10.9740299 15.0516418,11.0082587 15.1574129,10.981791 C15.2032836,10.9701493 15.279602,10.9912438 15.3566169,11.0367164 C15.4729353,11.1049751 15.48,11.11801 15.4602985,11.2291542 C15.4489552,11.2947264 15.4311443,11.4040796 15.420796,11.4725373 C15.4093532,11.5478607 15.3838806,11.5966169 15.3557214,11.5966169 C15.3245771,11.5966169 15.3092537,11.6369154 15.3092537,11.7212935 C15.3092537,11.8097512 15.2905473,11.8575124 15.2431841,11.8871642 C15.2067662,11.9098507 15.1766169,11.959602 15.1766169,11.9972139 C15.1766169,12.039005 15.1498507,12.0735323 15.1088557,12.0841791 C15.0677612,12.0948259 15.0335323,12.138607 15.0223881,12.1941294 C15.0109453,12.2517413 14.9769154,12.2932338 14.9332338,12.3046766 C14.8229851,12.3328358 14.619403,12.5167164 14.6077612,12.598806 C14.6012935,12.6447761 14.5344279,12.7137313 14.4316418,12.780995 C14.3404975,12.840796 14.2305473,12.9221891 14.1877612,12.96199 C14.0886567,13.0535323 13.781592,13.2520398 13.738806,13.2520398 C13.720796,13.2520398 13.6659701,13.2906468 13.6165174,13.33801 C13.5618905,13.3906468 13.4846766,13.4259701 13.418607,13.4290547 C13.321393,13.4337313 13.3024876,13.418806 13.2351244,13.2852736 C13.141393,13.0987065 13.1173134,13.0290547 13.1058706,12.9075622 C13.099602,12.840199 13.0458706,12.7646766 12.9297512,12.659005 C12.8379104,12.5752239 12.7543284,12.4763184 12.7436816,12.438209 C12.7332338,12.4002985 12.6761194,12.3485572 12.6173134,12.3222886 C12.5339303,12.2856716 12.4997015,12.2418905 12.4644776,12.1262687 C12.3881592,11.8762189 12.321194,11.761393 12.2381095,11.7406965 C12.1951244,11.7295522 12.1375124,11.67801 12.1103483,11.6253731 C12.0829851,11.5729353 12.0481592,11.5298507 12.0324378,11.5298507 C12.0169154,11.5298507 11.9947264,11.4963184 11.9835821,11.4555224 C11.9481592,11.3282587 11.7528358,11.1265672 11.6886567,11.1511443 C11.6575124,11.1629851 11.6321393,11.1953234 11.6321393,11.2230846 C11.6321393,11.2867662 11.8038806,11.5884577 11.8964179,11.6875622 C11.9350249,11.7285572 11.9583085,11.7757214 11.9481592,11.7922388 C11.9238806,11.8316418 11.9620896,11.9272637 12.0023881,11.9272637 C12.0954229,11.9272637 12.2149254,12.1293532 12.2467662,12.341194 C12.2642786,12.4591045 12.2897512,12.5027861 12.3652736,12.5474627 C12.418209,12.5787065 12.4940299,12.6718408 12.5331343,12.7541294 C12.5725373,12.8362189 12.6208955,12.9149254 12.6404975,12.9280597 C12.6642786,12.9445771 12.6628856,12.9526368 12.6351244,12.9528358 C12.6130348,12.9531343 12.6035821,12.9759204 12.6140299,13.0031841 C12.6393035,13.0684577 12.6922388,13.0668657 12.6922388,13.000796 C12.6922388,12.9659701 12.7165174,12.9522388 12.7665672,12.9595025 C12.8156219,12.9662687 12.8410945,12.9927363 12.8410945,13.0364179 C12.8410945,13.0772139 12.8945274,13.138209 12.9812935,13.1965174 C13.1911443,13.3364179 13.3077612,13.4564179 13.3330348,13.5570149 C13.3691542,13.7037811 13.4641791,13.7311443 13.6460697,13.6488557 C13.7318408,13.6099502 13.8241791,13.5639801 13.8513433,13.5472637 C13.8785075,13.5302488 13.9234826,13.5071642 13.9504478,13.4962189 C14.1658706,13.4104478 14.3694527,13.3034826 14.3913433,13.2646766 C14.4058706,13.239204 14.4470647,13.2183085 14.4824876,13.2183085 C14.5307463,13.2183085 14.5470647,13.2410945 14.5470647,13.3108458 C14.5470647,13.3618905 14.5655721,13.4225871 14.5883582,13.4454726 C14.621592,13.479005 14.6187065,13.4935323 14.5730348,13.5193035 C14.5418905,13.5368159 14.5244776,13.5717413 14.5341294,13.5970149 C14.5436816,13.6220896 14.5189055,13.7061692 14.479005,13.7843781 C14.439403,13.8620896 14.3706468,14.021194 14.3271642,14.1381095 C14.2022886,14.4696517 14.04199,14.6887562 13.6074627,15.121194 C13.0069652,15.719602 12.6908458,16.099204 12.7931343,16.099204 C12.8448756,16.099204 12.8281592,16.2259701 12.7748259,16.2377114 C12.7315423,16.2469652 12.7311443,16.259602 12.7719403,16.3378109 C12.8251741,16.439801 12.8229851,16.5010945 12.7634826,16.5729353 C12.7075622,16.64 12.7471642,16.7842786 12.8268657,16.8046766 C12.8836816,16.8197015 12.8898507,16.8516418 12.8851741,17.1141294 L12.879801,17.4070647 L12.7432836,17.539204 C12.6658706,17.6145274 12.5324378,17.6981095 12.4357214,17.7325373 C12.3414925,17.7655721 12.2460697,17.8151244 12.2233831,17.8421891 C12.200597,17.8693532 12.1247761,17.9208955 12.0541294,17.9568159 C11.9132338,18.0292537 11.8701493,18.0969154 11.9245771,18.1622886 C11.9666667,18.2133333 11.93801,18.4353234 11.8837811,18.4783085 C11.8633831,18.4941294 11.7703483,18.5322388 11.6773134,18.5623881 C11.5349254,18.6090547 11.498806,18.638209 11.4509453,18.7435821 C11.3941294,18.8699502 11.3831841,18.878209 10.9250746,19.1200995 C10.6444776,19.2685572 10.459801,19.3042786 9.89233831,19.320597 C9.60039801,19.3287562 9.32079602,19.3290547 9.27074627,19.320796 L9.27074627,19.320796 Z M11.869602,17.0622886 C11.842002,16.9928358 11.803702,17.1820896 11.826602,17.2746269 C11.839502,17.3256716 11.848602,17.3154229 11.866802,17.2279602 C11.879902,17.1657711 11.881002,17.0912438 11.869602,17.0622886 L11.869602,17.0622886 Z M11.1674627,16.5999745 C11.1674627,16.5838745 11.1366169,16.5623745 11.099204,16.5525745 C11.0432836,16.5379745 11.038209,16.5432745 11.0702488,16.5818745 C11.1140299,16.6349745 11.1674627,16.6448745 11.1674627,16.5999745 L11.1674627,16.5999745 Z M11.6450746,15.8345274 C11.7129353,15.8345274 11.8068657,15.7096517 11.7839801,15.6499502 C11.7684577,15.6091542 11.7402985,15.6016915 11.6725373,15.618408 C11.6226866,15.6305473 11.5765174,15.6546269 11.5709453,15.6713433 C11.5646766,15.6883582 11.5402985,15.70199 11.5162189,15.70199 C11.4927363,15.70199 11.4669652,15.7464677 11.459204,15.800398 C11.4472637,15.8793035 11.4574129,15.8997015 11.5133333,15.9077612 C11.5510448,15.9131343 11.5866667,15.899005 11.5925373,15.8762189 C11.5983085,15.8532338 11.6222886,15.8345274 11.6450746,15.8345274 L11.6450746,15.8345274 Z M19.6802444,11.418607 C19.6485444,11.3894527 19.6438444,11.3948259 19.6607444,11.4416915 C19.6724444,11.4749254 19.6841444,11.5273632 19.6866444,11.5575124 C19.6895444,11.5879602 19.6980444,11.5774129 19.7061444,11.5345274 C19.7144444,11.4914428 19.7024444,11.4393035 19.6802444,11.418607 L19.6802444,11.418607 Z M19.6490077,11.3148646 C19.6490077,11.2511646 19.6283077,11.2511646 19.6039077,11.3148646 C19.5932077,11.3424646 19.5987077,11.3649646 19.6168077,11.3649646 C19.6346077,11.3649646 19.6490077,11.3424646 19.6490077,11.3148646 L19.6490077,11.3148646 Z M14.480995,11.0707463 C14.4814925,11.0240796 14.4861692,11.0233831 14.5125373,11.0658706 C14.5541294,11.1314428 14.5856716,11.0963184 14.7112438,10.8428856 C14.7675622,10.7287562 14.8283582,10.6359204 14.8458706,10.6359204 C14.8633831,10.6359204 14.8777114,10.6174129 14.8770149,10.5946269 C14.8763184,10.5716418 14.838408,10.5961194 14.7920398,10.6485572 C14.6863682,10.7683582 14.4757214,10.8018905 14.3224876,10.7226866 C14.2658706,10.6935323 14.1966169,10.6785075 14.1686567,10.6891542 C14.1191045,10.7078607 13.8839801,10.4963184 13.8839801,10.4328358 C13.8839801,10.4171144 13.8682587,10.4041791 13.8487562,10.4041791 C13.8292537,10.4041791 13.8229851,10.3894527 13.8342289,10.3711443 C13.8453731,10.3529353 13.838806,10.3381095 13.819403,10.3381095 C13.8002985,10.3381095 13.7839801,10.3714428 13.7837811,10.4124378 C13.7832836,10.4726368 13.7772139,10.4775124 13.7512438,10.4372139 C13.7235821,10.3944279 13.7189055,10.3949254 13.718408,10.4428856 C13.718209,10.4732338 13.6995025,10.5062687 13.6766169,10.5162189 C13.6482587,10.5283582 13.658607,10.5514428 13.7099502,10.5890547 C13.7507463,10.619204 13.7842786,10.6640796 13.7842786,10.6886567 C13.7842786,10.7136318 13.8051741,10.7250746 13.8316418,10.7149254 C13.859602,10.7039801 13.9025871,10.7343284 13.938806,10.7904478 C13.9718408,10.84199 14.0210945,10.9039801 14.0487562,10.9282587 C14.0762189,10.9522388 14.0827861,10.9641791 14.0631841,10.9542289 C14.0434826,10.9447761 14.0269652,10.9560199 14.0269652,10.979801 C14.0269652,11.0030846 14.0483582,11.0222886 14.0739303,11.0222886 C14.1054726,11.0222886 14.1159204,10.9963184 14.1061692,10.9443781 C14.0933333,10.8775124 14.1012935,10.8695522 14.161393,10.8877612 C14.2509453,10.9149254 14.2451741,10.9081592 14.279602,11.0271642 C14.299801,11.0981095 14.2966169,11.1340299 14.2701493,11.1454726 C14.2429851,11.1566169 14.2450746,11.1707463 14.278408,11.1937313 C14.3385075,11.2347264 14.48,11.1487562 14.480995,11.0707463 L14.480995,11.0707463 Z M9.41164179,10.5696517 C9.42616915,10.4399005 9.44278607,10.4134328 9.5440796,10.3628856 C9.69442786,10.2880597 9.82656716,10.2893532 9.9038806,10.3667662 C9.93791045,10.400796 10.0233831,10.439403 10.0946269,10.4525373 C10.1652736,10.4658706 10.2381095,10.4884577 10.2564179,10.5027861 C10.2746269,10.5173134 10.341592,10.5373134 10.4055721,10.5477612 C10.4692537,10.55801 10.5962189,10.5802985 10.6870647,10.5975124 C10.8287562,10.6237811 10.8661692,10.619403 10.9414925,10.5657711 C11.0338308,10.4999005 11.1995025,10.4841791 11.4010945,10.520796 C11.5536318,10.5487562 11.5740299,10.521791 11.6614925,10.1703483 C11.7476617,9.8239801 11.7265672,9.63323383 11.599801,9.61522388 C11.5546269,9.60895522 11.5099502,9.62517413 11.4934328,9.65412935 C11.4506468,9.73014925 11.2735323,9.75830846 11.2064677,9.699801 C11.1185075,9.62258706 11.0018905,9.59651741 11.0018905,9.65393035 C11.0018905,9.74915423 10.8279602,9.7720398 10.7433831,9.68766169 C10.6923383,9.63661692 10.6870647,9.63810945 10.6703483,9.71004975 C10.6520398,9.78855721 10.5712438,9.8438806 10.5712438,9.77830846 C10.5712438,9.75840796 10.5402985,9.71124378 10.5024876,9.67363184 C10.4648756,9.6360199 10.4424876,9.58278607 10.4527363,9.55532338 C10.4668657,9.51860697 10.4551244,9.51134328 10.4055721,9.52736318 C10.358408,9.54238806 10.3397015,9.53293532 10.3397015,9.49432836 C10.3397015,9.46497512 10.3545274,9.44965174 10.3727363,9.46079602 C10.3907463,9.4719403 10.4057711,9.46567164 10.4057711,9.44626866 C10.4057711,9.42686567 10.3829851,9.41104478 10.3545274,9.41104478 C10.3147264,9.41104478 10.3051741,9.37781095 10.3109453,9.26258706 C10.3153234,9.18099502 10.3085572,9.1039801 10.2959204,9.09154229 C10.2830846,9.07870647 10.2729353,9.08616915 10.2729353,9.10736318 C10.2729353,9.12855721 10.2505473,9.14577114 10.2235821,9.14577114 C10.1964179,9.14577114 10.1740299,9.12368159 10.1740299,9.09621891 C10.1740299,9.06925373 10.1888557,9.04666667 10.2070647,9.04666667 C10.2253731,9.04666667 10.2400995,9.02189055 10.2400995,8.99174129 C10.2400995,8.9480597 10.2274627,8.9521393 10.1750249,9.01243781 C10.138607,9.05373134 10.0630846,9.09721393 10.0061692,9.10885572 L9.90288557,9.12995025 L9.98885572,9.22248756 C10.0374129,9.27492537 10.0913433,9.30487562 10.1130348,9.29174129 C10.1339303,9.27860697 10.1423881,9.28228856 10.1317413,9.29930348 C10.1210945,9.31631841 10.1725373,9.39552239 10.2458706,9.47522388 C10.3602985,9.59890547 10.3717413,9.6238806 10.3255721,9.64965174 C10.2959204,9.66597015 10.280398,9.69363184 10.2908458,9.71064677 C10.3014925,9.72766169 10.2962189,9.74179104 10.2787065,9.74179104 C10.261194,9.74179104 10.238408,9.71970149 10.2281592,9.69273632 C10.2175124,9.66477612 10.1873632,9.6521393 10.158408,9.66338308 C10.1222886,9.67721393 10.1073632,9.66218905 10.1073632,9.6121393 C10.1073632,9.52716418 10.0131343,9.48169154 9.9720398,9.54676617 C9.95621891,9.57223881 9.94268657,9.63393035 9.94218905,9.6839801 C9.94218905,9.73402985 9.92686567,9.77482587 9.90865672,9.77482587 C9.89064677,9.77482587 9.87562189,9.76318408 9.87562189,9.74885572 C9.87562189,9.73472637 9.83094527,9.70606965 9.77651741,9.68567164 C9.70945274,9.66039801 9.67691542,9.62547264 9.67691542,9.57900498 C9.67691542,9.54089552 9.65552239,9.50975124 9.62925373,9.50975124 C9.56029851,9.50975124 9.52845771,9.44099502 9.58159204,9.40726368 C9.61482587,9.38656716 9.6161194,9.37830846 9.58597015,9.37810945 C9.56318408,9.37791045 9.54467662,9.34845771 9.54467662,9.31323383 C9.54467662,9.27781095 9.52935323,9.23960199 9.51094527,9.22825871 C9.44825871,9.18935323 9.38099502,8.97830846 9.40039801,8.88109453 C9.4159204,8.80477612 9.40109453,8.7678607 9.32975124,8.70179104 C9.28069652,8.6561194 9.18935323,8.60199005 9.12736318,8.58129353 C9.06537313,8.56109453 9.01462687,8.52835821 9.01462687,8.50915423 C9.01462687,8.49024876 8.98109453,8.44189055 8.94029851,8.40149254 C8.81711443,8.28199005 8.74935323,8.18726368 8.74935323,8.13502488 C8.74935323,8.05970149 8.68447761,8.07671642 8.6521393,8.16049751 C8.63004975,8.21810945 8.64149254,8.25402985 8.70318408,8.31960199 C8.74666667,8.36626866 8.78238806,8.42766169 8.78238806,8.4559204 C8.78238806,8.5358209 8.9121393,8.68208955 8.98378109,8.68208955 C9.01880597,8.68208955 9.04746269,8.70179104 9.04746269,8.72537313 C9.04746269,8.74945274 9.11502488,8.8160199 9.19681592,8.87402985 C9.3479602,8.98069652 9.36925373,9.0241791 9.31363184,9.11233831 C9.28736318,9.15412935 9.2718408,9.14995025 9.21283582,9.08656716 C9.17442786,9.04547264 9.1278607,9.02119403 9.10915423,9.03283582 C9.08606965,9.04696517 9.08676617,9.06537313 9.11114428,9.08965174 C9.13084577,9.10955224 9.14736318,9.15114428 9.14736318,9.18199005 C9.14736318,9.260199 8.97970149,9.4438806 8.9080597,9.4438806 C8.86457711,9.4438806 8.84925373,9.46985075 8.84925373,9.54328358 C8.84925373,9.65333333 8.78686567,9.67472637 8.70497512,9.59283582 C8.67751244,9.56537313 8.64517413,9.54328358 8.63303483,9.54328358 C8.58248756,9.54328358 8.41850746,9.40288557 8.41850746,9.35940299 C8.41850746,9.30059701 8.57741294,9.25830846 8.62358209,9.30447761 C8.66507463,9.34577114 8.88835821,9.31641791 8.9240796,9.26487562 C8.9641791,9.20726368 8.91970149,9.08029851 8.83253731,9.00228856 C8.65303483,8.84218905 8.57771144,8.78149254 8.55681592,8.78069652 C8.54437811,8.780199 8.49074627,8.72069652 8.43731343,8.64825871 C8.3838806,8.57562189 8.32049751,8.51661692 8.29661692,8.51661692 C8.27273632,8.51661692 8.25313433,8.50159204 8.25313433,8.48338308 C8.25313433,8.46517413 8.26895522,8.45034826 8.28885572,8.45034826 C8.33691542,8.45034826 8.29054726,8.31144279 8.22666667,8.26477612 C8.18855721,8.23711443 8.15084577,8.24049751 8.07412935,8.27860697 C7.87880597,8.37552239 7.85641791,8.38427861 7.81174129,8.38427861 C7.78696517,8.38427861 7.71920398,8.36049751 7.66089552,8.33154229 C7.53144279,8.26696517 7.45850746,8.29004975 7.45850746,8.3959204 C7.45850746,8.49134328 7.41870647,8.52656716 7.24328358,8.58706468 C7.06865672,8.64706468 6.88865672,8.80835821 6.91263682,8.88298507 C6.93233831,8.94517413 6.74457711,9.15870647 6.69641791,9.12905473 C6.68109453,9.11960199 6.64636816,9.13442786 6.61870647,9.16208955 C6.56159204,9.21920398 6.47174129,9.22577114 6.35412935,9.18079602 C6.24477612,9.13930348 6.13303483,9.17273632 6.13303483,9.24716418 C6.13303483,9.32079602 6.16507463,9.34258706 6.28756219,9.3518408 C6.33930348,9.35572139 6.4,9.37681592 6.42258706,9.39850746 C6.44975124,9.42527363 6.49353234,9.42885572 6.55502488,9.40995025 C6.91721393,9.29800995 6.99791045,9.29432836 7.6238806,9.36527363 C7.72368159,9.37671642 7.88507463,9.38447761 7.98149254,9.38248756 C8.1041791,9.3800995 8.16218905,9.39313433 8.17462687,9.42577114 C8.18457711,9.45174129 8.21373134,9.46467662 8.23970149,9.45472637 C8.27104478,9.44258706 8.28656716,9.459801 8.28656716,9.50746269 C8.28656716,9.54636816 8.26467662,9.58636816 8.23820896,9.59641791 C8.20029851,9.61144279 8.19791045,9.63014925 8.22676617,9.68656716 C8.32437811,9.87631841 8.32567164,9.88258706 8.28119403,9.91104478 C8.25661692,9.92656716 8.21243781,9.93920398 8.18258706,9.93970149 C8.15273632,9.93970149 8.11920398,9.96348259 8.1079602,9.99164179 C8.09681592,10.0212935 8.10238806,10.0344279 8.12159204,10.0222886 C8.13960199,10.0111443 8.20467662,10.0553234 8.26587065,10.120199 C8.32756219,10.1854726 8.40945274,10.2383085 8.44955224,10.2383085 C8.58169154,10.2383085 8.81681592,10.3667662 8.81681592,10.4387065 C8.81681592,10.4804975 8.85054726,10.5177114 8.90766169,10.539801 C8.95791045,10.559005 9.06606965,10.6092537 9.1479602,10.6513433 C9.35432836,10.7581095 9.39174129,10.7469652 9.41164179,10.5696517 L9.41164179,10.5696517 Z M10.0639801,9.94965174 C10.0114428,9.94189055 9.97671642,9.91850746 9.9839801,9.89671642 C9.99880597,9.8520398 10.0036816,9.85174129 10.2150249,9.88776119 C10.5072637,9.93820896 10.3672637,9.99562189 10.0639801,9.94965174 L10.0639801,9.94965174 Z M11.2335323,9.93850746 C11.2335323,9.89064677 11.3202985,9.80656716 11.3445771,9.83084577 C11.3552239,9.84149254 11.401592,9.82547264 11.4480597,9.79512438 C11.5342289,9.73850746 11.5626866,9.7639801 11.4919403,9.83452736 C11.4700498,9.85641791 11.4654726,9.87412935 11.4816915,9.87412935 C11.4977114,9.87412935 11.4824876,9.89621891 11.4469652,9.92298507 C11.3718408,9.979801 11.2335323,9.98975124 11.2335323,9.93850746 L11.2335323,9.93850746 Z M10.4596274,9.85784963 C10.4845274,9.79414963 10.5053274,9.79414963 10.5053274,9.85784963 C10.5053274,9.88544963 10.4907274,9.90784963 10.4731274,9.90784963 C10.4552274,9.90784963 10.4492274,9.88564963 10.4596274,9.85784963 L10.4596274,9.85784963 Z M8.68258706,9.74185012 C8.68258706,9.69935012 8.70628706,9.69935012 8.73258706,9.74185012 C8.74378706,9.76045012 8.73718706,9.77505012 8.71768706,9.77505012 C8.69848706,9.77505012 8.68258706,9.76065012 8.68258706,9.74185012 L8.68258706,9.74185012 Z M7.98298507,9.12348259 C7.98079602,9.1081592 7.98199005,9.08149254 7.98587065,9.06328358 C7.98975124,9.04507463 7.99243781,8.96875622 7.99243781,8.89323383 C7.99243781,8.78706468 8.00457711,8.75771144 8.04706468,8.76109453 C8.08985075,8.76447761 8.09930348,8.73950249 8.09154229,8.64328358 C8.0839801,8.5480597 8.09661692,8.51383085 8.15054726,8.48487562 C8.21034826,8.45253731 8.21860697,8.45741294 8.21661692,8.52378109 C8.21542289,8.56557214 8.20248756,8.62945274 8.1881592,8.66537313 C8.17333333,8.70179104 8.17402985,8.76477612 8.18915423,8.80527363 C8.21004975,8.86119403 8.17800995,9.05303483 8.139801,9.100199 C8.120199,9.1241791 7.98587065,9.1438806 7.98298507,9.12348259 L7.98298507,9.12348259 Z M7.24258706,8.9160199 C7.21343284,8.86885572 7.25064677,8.81492537 7.3120398,8.81492537 C7.34069652,8.81492537 7.35771144,8.83800995 7.35114428,8.87004975 C7.33850746,8.93661692 7.27243781,8.96437811 7.24258706,8.9160199 L7.24258706,8.9160199 Z M7.42378109,8.85012537 C7.42378109,8.83082537 7.43888109,8.81492537 7.45718109,8.81492537 C7.49968109,8.81492537 7.49968109,8.83832537 7.45718109,8.86472537 C7.43868109,8.87602537 7.42378109,8.86942537 7.42378109,8.85012537 L7.42378109,8.85012537 Z M10.1774965,9.50069652 C10.1501965,9.47373134 10.1406965,9.47741294 10.1406965,9.51452736 C10.1406965,9.58059701 10.1852965,9.62507463 10.2016965,9.57552239 C10.2087965,9.55462687 10.1977965,9.52089552 10.1774965,9.50069652 L10.1774965,9.50069652 Z M13.861592,9.03820896 C13.9101493,9.00248756 13.9126368,8.98208955 13.8771144,8.88905473 C13.8545274,8.83004975 13.8246766,8.78169154 13.8103483,8.78169154 C13.7959204,8.78169154 13.7842786,8.76278607 13.7842786,8.73970149 C13.7842786,8.71641791 13.7544279,8.64208955 13.71801,8.57422886 C13.681592,8.50636816 13.6516418,8.43014925 13.6516418,8.40467662 C13.6516418,8.37970149 13.6290547,8.34049751 13.6020896,8.31771144 C13.5747264,8.29512438 13.5523383,8.24119403 13.5523383,8.19791045 C13.5523383,8.14079602 13.5338308,8.11940299 13.4844776,8.11940299 C13.4475622,8.11940299 13.3795025,8.08199005 13.3343284,8.03651741 C13.2884577,7.99084577 13.2379104,7.95363184 13.2220896,7.95363184 C13.2060697,7.95363184 13.1655721,7.91910448 13.1325373,7.87711443 C13.0514428,7.77462687 12.9702488,7.7478607 12.9206965,7.8078607 C12.8905473,7.84378109 12.8893532,7.87562189 12.9153234,7.93004975 C12.9347264,7.97014925 12.9595025,8.04029851 12.9699502,8.08597015 C12.980199,8.13144279 12.9999005,8.1840796 13.0139303,8.20258706 C13.0658706,8.27283582 13.3973134,8.51641791 13.4406965,8.51641791 C13.4657711,8.51641791 13.4861692,8.53880597 13.4861692,8.56597015 C13.4861692,8.59313433 13.4630846,8.61572139 13.4346269,8.61572139 C13.3930348,8.61572139 13.3855721,8.6519403 13.3933333,8.80597015 C13.4022886,8.98089552 13.4100498,8.99761194 13.4861692,9.00756219 C13.5318408,9.01363184 13.5833831,9.03253731 13.6002985,9.04885572 C13.6461692,9.09313433 13.7957214,9.08676617 13.861592,9.03820896 L13.861592,9.03820896 Z M10.6708816,8.94752935 C10.6708816,8.92922935 10.6472816,8.91412935 10.6190816,8.91412935 C10.5905816,8.91412935 10.5760816,8.92922935 10.5876816,8.94752935 C10.6142816,8.99052935 10.6708816,8.99052935 10.6708816,8.94752935 L10.6708816,8.94752935 Z M11.0936318,8.73572139 C11.2257711,8.65114428 11.5318408,8.59263682 11.5318408,8.6519403 C11.5318408,8.67084577 11.5473632,8.67691542 11.5663682,8.66507463 C11.5853731,8.65323383 11.6229851,8.66169154 11.6492537,8.68378109 C11.6764179,8.70616915 11.7935323,8.72358209 11.9147264,8.72358209 C12.0945274,8.72358209 12.1452736,8.71094527 12.2113433,8.64875622 C12.3106468,8.55572139 12.2812935,8.48577114 12.1041791,8.39273632 C12.0352239,8.35651741 11.8970149,8.28368159 11.7966169,8.22995025 C11.6012935,8.12597015 11.5323383,8.12477612 11.3938308,8.22288557 C11.2864677,8.29920398 11.2004975,8.30328358 11.2004975,8.23263682 C11.2004975,8.20348259 11.1696517,8.17164179 11.1315423,8.16169154 C11.0843781,8.14925373 11.0676617,8.12447761 11.0789055,8.08199005 C11.0902488,8.03850746 11.0771144,8.02029851 11.0347264,8.02029851 C11.001393,8.02029851 10.9666667,8.00159204 10.9572139,7.97900498 C10.9351244,7.92507463 10.8049751,8.08059701 10.8039801,8.16139303 C10.8031841,8.19343284 10.7730348,8.24517413 10.7364179,8.27631841 C10.7,8.3078607 10.6703483,8.37393035 10.6703483,8.42497512 C10.6703483,8.47552239 10.6567164,8.51701493 10.6408955,8.51701493 C10.5849751,8.51701493 10.5731343,8.66447761 10.6223881,8.74 C10.6923383,8.84577114 10.9245771,8.8438806 11.0936318,8.73572139 L11.0936318,8.73572139 Z M11.6747264,7.97472637 C11.6844776,7.94945274 11.6767164,7.91353234 11.6577114,7.89452736 C11.6135323,7.85004975 11.4655721,7.91273632 11.4655721,7.9759204 C11.4655721,8.03542289 11.6519403,8.03422886 11.6747264,7.97472637 L11.6747264,7.97472637 Z M9.26049751,6.57880597 C9.33870647,6.51930348 9.45024876,6.5159204 9.50537313,6.57124378 C9.53383085,6.59970149 9.55373134,6.60139303 9.56995025,6.57711443 C9.58308458,6.55771144 9.61781095,6.53293532 9.6479602,6.52169154 C9.68268657,6.50885572 9.70845771,6.45004975 9.71940299,6.35870647 C9.72885572,6.28 9.76308458,6.13791045 9.79572139,6.04268657 C9.84527363,5.89810945 9.87154229,5.86606965 9.95631841,5.84447761 C10.0452736,5.82189055 10.0338308,5.81681592 9.85870647,5.80199005 C9.74278607,5.79223881 9.65442786,5.79860697 9.64636816,5.81781095 C9.62308458,5.87373134 9.56039801,5.92467662 9.48606965,5.9480597 C9.41144279,5.97164179 9.35950249,6.07562189 9.39422886,6.1319403 C9.41701493,6.1681592 9.35562189,6.30149254 9.29880597,6.33920398 C9.27890547,6.35283582 9.22905473,6.36378109 9.1880597,6.3641791 C9.11104478,6.36467662 9.08825871,6.41134328 9.14676617,6.44746269 C9.19651741,6.47830846 9.18616915,6.53004975 9.13004975,6.53004975 C9.10288557,6.53004975 9.08049751,6.51522388 9.08049751,6.49701493 C9.08049751,6.47880597 9.04328358,6.4639801 8.99761194,6.4639801 C8.9519403,6.4639801 8.91472637,6.47880597 8.91472637,6.49701493 C8.91472637,6.51522388 8.93711443,6.53004975 8.96427861,6.53004975 C8.99174129,6.53004975 9.01432836,6.55283582 9.01432836,6.579801 C9.01393035,6.64437811 9.17432836,6.6438806 9.26049751,6.57880597 L9.26049751,6.57880597 Z M9.47791045,6.17800995 C9.47791045,6.13960199 9.50049751,6.08905473 9.5281592,6.06606965 C9.60636816,6.00049751 9.61393035,6.04248756 9.54268657,6.15084577 C9.48547264,6.23771144 9.47820896,6.24089552 9.47791045,6.17800995 L9.47791045,6.17800995 Z M8.87940299,6.26736318 C8.91830846,6.24278607 8.91950249,6.22288557 8.88646766,6.160199 C8.86238806,6.11402985 8.85343284,6.10845771 8.8640796,6.14517413 C8.87522388,6.18258706 8.85900498,6.22487562 8.8239801,6.2520398 C8.75860697,6.30119403 8.80477612,6.31452736 8.87940299,6.26736318 L8.87940299,6.26736318 Z M10.0621891,6.14905473 C10.0908458,6.07442786 10.0106468,5.98965174 9.95532338,6.0358209 C9.92029851,6.06427861 9.91960199,6.08537313 9.95074627,6.13542289 C9.99850746,6.2120398 10.0364179,6.21661692 10.0621891,6.14905473 L10.0621891,6.14905473 Z M11.3665984,5.90326059 C11.3665984,5.85806059 11.3077984,5.82856059 11.2867984,5.86276059 C11.2667984,5.89496059 11.2955984,5.93476059 11.3387984,5.93476059 C11.3541984,5.93476059 11.3665984,5.92066059 11.3665984,5.90326059 L11.3665984,5.90326059 Z M10.3846058,5.75217799 C10.4090058,5.68847799 10.3919058,5.68847799 10.3392058,5.75217799 C10.3151058,5.78097799 10.3121058,5.80197799 10.3317058,5.80197799 C10.3503058,5.80217799 10.3739058,5.77977799 10.3846058,5.75217799 L10.3846058,5.75217799 Z M9.75144279,5.59034826 C9.77890547,5.55004975 9.77064677,5.20577114 9.74218905,5.20577114 C9.73223881,5.20577114 9.67880597,5.24756219 9.62318408,5.29830846 C9.4920398,5.41810945 9.45263682,5.56039801 9.53452736,5.62189055 C9.59701493,5.66885572 9.70895522,5.65283582 9.75144279,5.59034826 L9.75144279,5.59034826 Z M10.7698507,5.62069652 C10.7698507,5.57840796 10.6763184,5.50338308 10.6227861,5.50338308 C10.5890547,5.50338308 10.6031841,5.58885572 10.6439801,5.62925373 C10.6989055,5.68437811 10.7698507,5.67930348 10.7698507,5.62069652 L10.7698507,5.62069652 Z M9.96039801,5.08606965 C10.0859701,4.99014925 10.1093532,4.90776119 10.0101493,4.90776119 C9.94527363,4.90776119 9.84208955,4.98885572 9.84208955,5.0399005 C9.84208955,5.05522388 9.83313433,5.09164179 9.82218905,5.1200995 C9.79353234,5.19462687 9.82975124,5.18567164 9.96039801,5.08606965 L9.96039801,5.08606965 Z M10.9852736,5.00702026 C10.9741294,4.98892026 10.939602,4.97482026 10.9087562,4.97602026 C10.8627861,4.97822026 10.8647761,4.98362026 10.919005,5.00702026 C11.0076617,5.04562026 11.0086567,5.04562026 10.9852736,5.00702026 L10.9852736,5.00702026 Z M11.1507463,4.82825871 C11.1507463,4.76676617 11.1315423,4.75900498 10.9830846,4.75900498 C10.8329353,4.75900498 10.8166169,4.76577114 10.8280597,4.82507463 C10.838408,4.87950249 10.8685572,4.8921393 10.9957214,4.89482587 C11.1323383,4.89751244 11.1507463,4.88975124 11.1507463,4.82825871 L11.1507463,4.82825871 Z M17.6425131,4.2161194 C17.6526131,4.20029851 17.6396131,4.16945274 17.6140131,4.14835821 C17.5756131,4.11681592 17.5701131,4.12208955 17.5850131,4.17751244 C17.6044131,4.25253731 17.6154131,4.25960199 17.6425131,4.2161194 L17.6425131,4.2161194 Z M12.3312903,3.2432899 C12.2985903,3.2105899 12.2944903,3.2146899 12.3126903,3.2618899 C12.3251903,3.2948899 12.3437903,3.3131899 12.3539903,3.3028899 C12.3644903,3.2928899 12.3539903,3.2657899 12.3312903,3.2432899 L12.3312903,3.2432899 Z M16.2038796,2.31277212 C16.2038796,2.30617212 16.1777796,2.27977212 16.1457796,2.25467212 C16.0930796,2.21337212 16.0918796,2.21467212 16.1333796,2.26737212 C16.1764796,2.32247212 16.2038796,2.34037212 16.2038796,2.31277212 L16.2038796,2.31277212 Z M13.8178109,0.952139303 C13.8178109,0.927164179 13.4080597,0.803681592 13.3897512,0.823383085 C13.3696517,0.845273632 13.3804975,0.850348259 13.6191045,0.934626866 C13.7515423,0.98159204 13.8178109,0.987363184 13.8178109,0.952139303 L13.8178109,0.952139303 Z M13.1448756,18.2919403 C13.1376119,18.278806 13.1296517,18.2073632 13.1273632,18.1330348 C13.1237811,18.0227861 13.141791,17.9804975 13.2238806,17.901791 C13.3115423,17.818209 13.3216915,17.7900498 13.3037811,17.6840796 C13.28,17.5449751 13.3577114,17.3574129 13.438408,17.3574129 C13.5305473,17.3574129 13.7867662,17.2167164 13.8774129,17.1169154 C14.2424876,16.7122388 14.2451741,16.7097512 14.2935323,16.761791 C14.3581095,16.8300498 14.3858706,17.080199 14.3336318,17.1237811 C14.3109453,17.1424876 14.2825871,17.1480597 14.2706468,17.1364179 C14.2585075,17.1242786 14.2487562,17.1544279 14.2487562,17.2029851 C14.2487562,17.2517413 14.2337313,17.2914428 14.2155224,17.2914428 C14.1972139,17.2914428 14.1824876,17.3059701 14.1824876,17.3239801 C14.1824876,17.3623881 13.9608955,17.720398 13.7682587,17.9936318 C13.6674627,18.1369154 13.600398,18.1955224 13.4888557,18.23801 C13.320597,18.3025871 13.1643781,18.3269652 13.1448756,18.2919403 L13.1448756,18.2919403 Z M14.9112438,17.4588826 C14.9112438,17.4393826 14.9260438,17.4234826 14.9444438,17.4234826 C14.9871438,17.4234826 14.9871438,17.4470826 14.9444438,17.4732826 C14.9261438,17.4845826 14.9112438,17.4783826 14.9112438,17.4588826 L14.9112438,17.4588826 Z M7.05910448,15.4061463 C7.05910448,15.3866463 7.07450448,15.3707463 7.09250448,15.3707463 C7.13550448,15.3707463 7.13550448,15.3943463 7.09250448,15.4205463 C7.07430448,15.4320463 7.05910448,15.4256463 7.05910448,15.4061463 L7.05910448,15.4061463 Z M1.50318408,15.1140299 C1.13492537,14.5391045 0.677512438,13.5012935 0.455223881,12.7367164 C0.101492537,11.518209 -0.0311442786,10.1262687 0.0984079602,8.98666667 C0.152338308,8.51412935 0.211144279,8.48477612 0.202089552,8.93542289 C0.185771144,9.76885572 0.191840796,10.0715423 0.226368159,10.1130348 C0.246567164,10.1371144 0.280298507,10.260995 0.301393035,10.3880597 C0.322288557,10.5153234 0.353134328,10.6448756 0.369651741,10.6764179 C0.385970149,10.7079602 0.4,10.8051741 0.400298507,10.8916418 C0.40079602,10.978607 0.421393035,11.138607 0.446467662,11.2482587 C0.471741294,11.3576119 0.50159204,11.5212935 0.513233831,11.6126368 C0.550149254,11.9046766 0.822189055,12.5648756 0.998109453,12.7908458 C1.04885572,12.8569154 1.15940299,13.0543284 1.24298507,13.2300498 C1.32706468,13.4056716 1.40845771,13.5494527 1.42447761,13.5494527 C1.45920398,13.5494527 1.48497512,13.6116418 1.54597015,13.840995 C1.61353234,14.0939303 1.60477612,14.1674627 1.4920398,14.3076617 L1.39124378,14.4330348 L1.47771144,14.6949254 C1.57363184,14.9864677 1.65721393,15.3046766 1.63781095,15.3046766 C1.63074627,15.3044776 1.57024876,15.2189055 1.50318408,15.1140299 L1.50318408,15.1140299 Z M14.8779104,13.0201586 C14.9432836,12.9776586 15.019801,12.9776586 14.9940299,13.0201586 C14.9828856,13.0382586 14.9408955,13.0533586 14.900995,13.0528586 C14.84199,13.0526586 14.8376119,13.0464586 14.8779104,13.0201586 L14.8779104,13.0201586 Z M12.9564179,12.8019843 C12.9564179,12.7433843 13.0282179,12.7536843 13.0487179,12.8154843 C13.0560179,12.8371843 13.0383179,12.8550843 13.0091179,12.8550843 C12.9803179,12.8549843 12.9564179,12.8307843 12.9564179,12.8019843 L12.9564179,12.8019843 Z M2.90005173,11.5943293 C2.88805173,11.5748293 2.88615173,11.5508293 2.89585173,11.5411293 C2.91955173,11.5172293 2.98445173,11.5592293 2.98445173,11.5982293 C2.98475173,11.6409293 2.92715173,11.6382293 2.90005173,11.5943293 L2.90005173,11.5943293 Z M3.01731343,11.4637418 C3.01731343,11.4209418 3.04101343,11.4209418 3.06731343,11.4637418 C3.07851343,11.4818418 3.07221343,11.4971418 3.05241343,11.4971418 C3.03321343,11.4971418 3.01731343,11.4820418 3.01731343,11.4637418 L3.01731343,11.4637418 Z M2.84338308,11.2495522 C2.77681592,11.1585075 2.77144279,11.1324378 2.81840796,11.1324378 C2.83641791,11.1324378 2.85144279,11.1497512 2.85144279,11.1711443 C2.85144279,11.1925373 2.87641791,11.2374129 2.90656716,11.2707463 C2.93671642,11.3039801 2.9478607,11.3305473 2.93134328,11.3302488 C2.91482587,11.3294527 2.87522388,11.2935323 2.84338308,11.2495522 L2.84338308,11.2495522 Z M19.1098625,10.2513433 C19.0966625,10.238209 19.0866625,10.1888557 19.0875625,10.1421891 L19.0897625,10.0565174 L19.1216625,10.1362189 C19.1566625,10.2226866 19.1493625,10.2907463 19.1098625,10.2513433 L19.1098625,10.2513433 Z M4.39498852,10.0777697 C4.38058852,10.0545697 4.37818852,10.0267697 4.38908852,10.0157697 C4.41888852,9.98596966 4.45138852,10.0299697 4.43518852,10.0779697 C4.42388852,10.1116697 4.41598852,10.1116697 4.39498852,10.0777697 L4.39498852,10.0777697 Z M4.62457711,10.0199005 C4.67223881,9.97273632 4.71860697,9.94169154 4.7280597,9.95064677 C4.75402985,9.97661692 4.6321393,10.1062687 4.58208955,10.1062687 C4.55671642,10.1060697 4.57452736,10.0701493 4.62457711,10.0199005 L4.62457711,10.0199005 Z M4.27621891,9.94056318 C4.27621891,9.92246318 4.29961891,9.90736318 4.32821891,9.90736318 C4.35681891,9.90736318 4.37091891,9.92246318 4.35951891,9.94056318 C4.33281891,9.98406318 4.27621891,9.98406318 4.27621891,9.94056318 L4.27621891,9.94056318 Z M4.5081592,9.17926306 C4.5081592,9.13676306 4.5318592,9.13676306 4.5581592,9.17926306 C4.5693592,9.19756306 4.5627592,9.21246306 4.5435592,9.21246306 C4.5240592,9.21246306 4.5081592,9.19756306 4.5081592,9.17926306 L4.5081592,9.17926306 Z M4.01114428,7.92095535 C4.01114428,7.87825535 4.03484428,7.87825535 4.06114428,7.92095535 C4.07234428,7.93905535 4.06604428,7.95435535 4.04654428,7.95435535 C4.02674428,7.95435535 4.01114428,7.93925535 4.01114428,7.92095535 L4.01114428,7.92095535 Z M3.82782708,7.65448159 C3.79752708,7.60518159 3.82172708,7.58738159 3.87492708,7.62078159 C3.90372708,7.63808159 3.90712708,7.65548159 3.88472708,7.66908159 C3.86592708,7.68088159 3.84022708,7.67428159 3.82782708,7.65448159 L3.82782708,7.65448159 Z M0.537810945,7.35761194 C0.537810945,7.3121393 0.545410945,7.29343284 0.554610945,7.31631841 C0.563610945,7.33910448 0.563610945,7.37631841 0.554610945,7.39920398 C0.545310945,7.42199005 0.537810945,7.40358209 0.537810945,7.35761194 L0.537810945,7.35761194 Z M0.558434648,7.05621891 C0.533734648,6.9920398 0.600134648,6.69572139 0.639534648,6.69572139 C0.666634648,6.69572139 0.649534648,6.84149254 0.599934648,7.02557214 C0.583834648,7.08626866 0.573134648,7.09402985 0.558434648,7.05621891 L0.558434648,7.05621891 Z M0.930149254,5.86792637 C0.930149254,5.84982637 0.945049254,5.83472637 0.963349254,5.83472637 C0.981649254,5.83472637 0.996549254,5.84982637 0.996549254,5.86792637 C0.996549254,5.88622637 0.981649254,5.90132637 0.963349254,5.90132637 C0.945049254,5.90132637 0.930149254,5.88622637 0.930149254,5.86792637 L0.930149254,5.86792637 Z M1.02925373,5.68437811 C1.02925373,5.64308458 1.13492537,5.46577114 1.14995025,5.48109453 C1.1679602,5.49880597 1.07144279,5.70268657 1.04497512,5.70268657 C1.03651741,5.70238806 1.02925373,5.69432836 1.02925373,5.68437811 L1.02925373,5.68437811 Z M7.88845777,5.46447761 C7.88795777,5.43333333 7.90355777,5.39840796 7.92335777,5.38646766 C7.98165777,5.35024876 7.99025777,5.38845771 7.93845777,5.45641791 C7.89555777,5.51263682 7.88945777,5.51333333 7.88845777,5.46447761 L7.88845777,5.46447761 Z M1.16208955,5.4086551 C1.16208955,5.3903551 1.17718955,5.3661551 1.19548955,5.3549551 C1.21358955,5.3434551 1.22868955,5.3490551 1.22868955,5.3674551 C1.22868955,5.3858551 1.21358955,5.4101551 1.19548955,5.4214551 C1.17728955,5.4326551 1.16208955,5.4270551 1.16208955,5.4086551 L1.16208955,5.4086551 Z M7.60358209,5.07343284 C7.60358209,5.03701493 7.62338209,5.00686567 7.64748209,5.00686567 C7.68118209,5.00686567 7.68338209,5.02268657 7.65578209,5.07343284 C7.61108209,5.15621891 7.60358209,5.15621891 7.60358209,5.07343284 L7.60358209,5.07343284 Z M3.32756219,4.86646766 C3.33144279,4.84368159 3.34557214,4.80646766 3.3599005,4.78358209 C3.37641791,4.75711443 3.36696517,4.74208955 3.33412935,4.74208955 C3.30567164,4.74208955 3.28238806,4.72049751 3.28238806,4.69353234 C3.28238806,4.66218905 3.30159204,4.65243781 3.33701493,4.66636816 C3.3921393,4.68746269 3.39044776,4.64547264 3.32756219,4.43363184 C3.31492537,4.3918408 3.33074627,4.3680597 3.37880597,4.35562189 C3.41691542,4.34567164 3.4480597,4.32746269 3.4480597,4.31502488 C3.4480597,4.30288557 3.47482587,4.29074627 3.50825871,4.28855721 C3.60905473,4.28079602 3.84636816,4.16587065 3.83472637,4.13014925 C3.82865672,4.1119403 3.78955224,4.09472637 3.7479602,4.09273632 C3.659801,4.0881592 3.60776119,4.02059701 3.6320398,3.94258706 C3.64149254,3.91223881 3.63373134,3.87751244 3.61482587,3.86587065 C3.59562189,3.85393035 3.58029851,3.8719403 3.58029851,3.90646766 C3.58029851,3.94049751 3.55840796,3.99711443 3.53174129,4.03253731 C3.45572139,4.13313433 3.4680597,4.01920398 3.54726368,3.88895522 C3.63840796,3.74 3.63084577,3.69482587 3.51004975,3.67054726 C3.34726368,3.63800995 3.33880597,3.64477612 3.43621891,3.72835821 C3.52537313,3.80507463 3.52587065,3.80875622 3.47044776,3.89402985 C3.43910448,3.94189055 3.39124378,3.98099502 3.36457711,3.98099502 C3.33761194,3.98099502 3.31552239,3.99432836 3.31552239,4.01034826 C3.31552239,4.02636816 3.28517413,4.04756219 3.2479602,4.05721393 C3.21124378,4.06696517 3.18338308,4.08736318 3.18646766,4.10268657 C3.20079602,4.1760199 3.13621891,4.34557214 3.09412935,4.34557214 C3.0678607,4.34557214 3.05452736,4.35870647 3.06427861,4.37422886 C3.07402985,4.39004975 3.12308458,4.39631841 3.17363184,4.38875622 C3.25771144,4.37542289 3.26079602,4.37850746 3.2078607,4.42159204 C3.1760199,4.44736318 3.14985075,4.48746269 3.14985075,4.51004975 C3.14985075,4.56179104 2.99124378,4.52706468 2.91522388,4.45880597 C2.88676617,4.43303483 2.83751244,4.4119403 2.80636816,4.4119403 C2.75900498,4.4119403 2.7561194,4.40049751 2.78746269,4.34169154 C2.8081592,4.30308458 2.85353234,4.2641791 2.8880597,4.25492537 C2.92258706,4.24597015 2.95094527,4.22457711 2.95094527,4.20726368 C2.95094527,4.19054726 2.93830846,4.1839801 2.92278607,4.19363184 C2.90726368,4.20308458 2.87761194,4.17422886 2.85721393,4.12925373 C2.83681592,4.0840796 2.80696517,4.04766169 2.79044776,4.04766169 C2.74039801,4.04766169 2.58756219,4.18199005 2.59562189,4.21890547 C2.599801,4.23830846 2.58199005,4.26189055 2.55651741,4.27114428 C2.5241791,4.28308458 2.51641791,4.27134328 2.53054726,4.23422886 C2.54218905,4.20437811 2.53681592,4.1800995 2.51940299,4.1800995 C2.50199005,4.1800995 2.48736318,4.15532338 2.48736318,4.12497512 C2.48736318,4.07422886 2.48298507,4.07422886 2.42666667,4.12497512 C2.39343284,4.15532338 2.35014925,4.1800995 2.33094527,4.1800995 C2.31154229,4.1800995 2.22258706,4.24567164 2.13343284,4.32557214 C2.00029851,4.44507463 1.95442786,4.4679602 1.87791045,4.45363184 C1.80378109,4.43950249 1.7680597,4.45532338 1.70328358,4.53164179 L1.62169154,4.62736318 L1.68,4.52049751 C1.7120398,4.46218905 1.86606965,4.24308458 2.02179104,4.03412935 C3.49253731,2.06189055 5.63751244,0.704378109 8.039801,0.225572139 C8.97651741,0.0385074627 10.101791,-0.0390049751 10.6593035,0.0443781095 C10.8200995,0.0684577114 10.9176119,0.0934328358 10.8755224,0.100497512 C10.8332338,0.107263682 10.7905473,0.134029851 10.780597,0.16 C10.7699502,0.187661692 10.7169154,0.206865672 10.6520398,0.206865672 C10.5308458,0.206865672 10.4693532,0.259104478 10.5621891,0.283383085 C10.6107463,0.296218905 10.6091542,0.29920398 10.5527363,0.302288557 C10.5155224,0.304676617 10.4672637,0.323880597 10.4455721,0.345572139 C10.418607,0.372338308 10.1966169,0.387562189 9.73502488,0.393631841 C8.93532338,0.404577114 8.8799005,0.410646766 8.64746269,0.513432836 C8.54835821,0.557114428 8.39024876,0.602089552 8.2959204,0.613233831 C8.20139303,0.624378109 8.09691542,0.648258706 8.06368159,0.666467662 C8.03064677,0.684477612 7.95920398,0.708756219 7.90557214,0.72039801 C7.83313433,0.735721393 7.8200995,0.748557214 7.85452736,0.769751244 C7.879801,0.785273632 7.91253731,0.791343284 7.92696517,0.78238806 C7.94109453,0.773631841 8.00517413,0.780696517 8.06905473,0.798208955 C8.13880597,0.81761194 8.19243781,0.818109453 8.2038806,0.800199005 C8.21432836,0.783482587 8.2038806,0.769850746 8.18109453,0.769850746 C8.15482587,0.769850746 8.15094527,0.75840796 8.17044776,0.739502488 C8.22706468,0.684875622 8.43333333,0.687761194 8.51323383,0.743681592 C8.58537313,0.794228856 8.58636816,0.799303483 8.52855721,0.828955224 C8.46686567,0.86079602 8.23850746,0.915422886 8.01552239,0.950945274 C7.92517413,0.965771144 7.88945274,0.989850746 7.87532338,1.04686567 C7.85731343,1.11830846 7.83940299,1.12358209 7.61512438,1.12358209 C7.35691542,1.12358209 7.0520398,1.19402985 7.07024876,1.24965174 C7.08527363,1.29512438 7.25243781,1.31233831 7.30199005,1.27343284 C7.43701493,1.16656716 7.77452736,1.14537313 7.7358209,1.24646766 C7.7159204,1.29840796 7.80995025,1.34587065 7.83930348,1.29870647 C7.84995025,1.28119403 7.88736318,1.26686567 7.92308458,1.26686567 C7.959801,1.26686567 7.98746269,1.2440796 7.98746269,1.21363184 C7.98746269,1.17840796 8.00547264,1.16696517 8.03970149,1.18039801 C8.06865672,1.19134328 8.11432836,1.20059701 8.14149254,1.20059701 C8.18447761,1.20059701 8.18447761,1.20686567 8.14,1.25114428 C8.05930348,1.3318408 8.10577114,1.38746269 8.24109453,1.37164179 C8.3239801,1.36189055 8.35353234,1.36925373 8.33781095,1.39492537 C8.32208955,1.42059701 8.36258706,1.43233831 8.46706468,1.43233831 C8.57154229,1.43233831 8.62497512,1.4478607 8.63830846,1.48169154 C8.64875622,1.50885572 8.67810945,1.53144279 8.70338308,1.53144279 C8.74467662,1.53144279 8.76358209,1.5720398 8.74129353,1.61283582 C8.73671642,1.62109453 8.76238806,1.64925373 8.79810945,1.67522388 C8.85402985,1.7160199 8.85761194,1.73472637 8.8240796,1.80835821 C8.80248756,1.85502488 8.74825871,1.90288557 8.7038806,1.91402985 L8.62288557,1.93432836 L8.69432836,2.00597015 C8.73393035,2.04537313 8.79850746,2.08029851 8.83810945,2.0839801 C8.87771144,2.08736318 8.95641791,2.11383085 9.01303483,2.14298507 C9.09393035,2.18477612 9.11333333,2.21412935 9.10457711,2.280199 C9.09850746,2.32636816 9.0720398,2.37781095 9.04577114,2.39412935 C9.00985075,2.41721393 9.00855721,2.42447761 9.04139303,2.42477612 C9.06517413,2.42497512 9.07542289,2.44059701 9.0641791,2.45880597 C9.05303483,2.47681592 9.06706468,2.4918408 9.09532338,2.4918408 C9.1239801,2.4918408 9.14706468,2.51422886 9.14706468,2.54139303 C9.14706468,2.56835821 9.12666667,2.59094527 9.10139303,2.59094527 C9.0321393,2.59094527 8.74935323,2.72258706 8.74935323,2.75492537 C8.74935323,2.77074627 8.7158209,2.77701493 8.67472637,2.76975124 C8.63363184,2.76218905 8.61880597,2.76437811 8.64149254,2.77532338 C8.6718408,2.78985075 8.67333333,2.81174129 8.64706468,2.86129353 C8.62736318,2.89771144 8.60258706,2.91910448 8.5921393,2.90865672 C8.58169154,2.89840796 8.55641791,2.91283582 8.5360199,2.94099502 C8.51532338,2.96895522 8.4718408,2.9959204 8.43880597,3.00079602 C8.36855721,3.01104478 8.31781095,3.08149254 8.3399005,3.13850746 C8.35323383,3.17353234 8.28477612,3.20656716 8.16885572,3.22139303 C8.15084577,3.22378109 8.11492537,3.24298507 8.09014925,3.2638806 C8.06467662,3.28457711 8.02358209,3.30199005 7.99900498,3.30228856 C7.94776119,3.30278607 7.68875622,3.54348259 7.68875622,3.59084577 C7.68875622,3.60756219 7.65691542,3.61174129 7.61810945,3.59960199 C7.57313433,3.58507463 7.55542289,3.58965174 7.56955224,3.61174129 C7.58676617,3.6399005 7.32736318,3.7079602 7.25840796,3.69313433 C6.97174129,3.63263682 6.85681592,3.62855721 6.57064677,3.66766169 C6.45353234,3.6839801 6.38169154,3.67910448 6.35004975,3.65283582 C6.31363184,3.62268657 6.27621891,3.62517413 6.1841791,3.66348259 C6.11880597,3.69064677 6.06517413,3.72666667 6.06517413,3.74288557 C6.06517413,3.75890547 6.01880597,3.77402985 5.96189055,3.77572139 C5.90527363,3.77741294 5.75781095,3.8318408 5.63422886,3.89641791 C5.36875622,4.0361194 5.31910448,4.04358209 5.35243781,3.9400995 C5.36557214,3.89900498 5.37940299,3.81810945 5.38378109,3.7600995 C5.39323383,3.62527363 5.50378109,3.48169154 5.80915423,3.20885572 C6.09482587,2.95303483 6.4959204,2.7441791 6.4959204,2.85104478 C6.4959204,2.86656716 6.53353234,2.87243781 6.57970149,2.86368159 C6.65771144,2.84865672 6.65910448,2.84447761 6.60447761,2.80199005 C6.54835821,2.75850746 6.54885572,2.75393035 6.6120398,2.70437811 C6.64845771,2.67572139 6.71890547,2.65800995 6.76875622,2.66527363 C6.83532338,2.67472637 6.86497512,2.66139303 6.87900498,2.61691542 C6.89044776,2.58049751 7.01263682,2.50248756 7.17731343,2.42527363 C7.49771144,2.2761194 7.62646766,2.16706468 7.600199,2.06666667 C7.58587065,2.01323383 7.61084577,1.98477612 7.71751244,1.93014925 C7.7918408,1.89223881 7.8639801,1.86358209 7.87810945,1.86676617 C7.89243781,1.86995025 7.92965174,1.86119403 7.96099502,1.84736318 C7.99791045,1.83134328 8.06079602,1.84885572 8.13830846,1.89641791 C8.23522388,1.95621891 8.2641791,1.96199005 8.28626866,1.92606965 C8.34726368,1.82746269 8.08467662,1.760199 7.53124378,1.73323383 C7.43283582,1.7281592 7.43701493,1.65840796 7.54268657,1.53303483 C7.60656716,1.45701493 7.61552239,1.43144279 7.57771144,1.43144279 C7.55004975,1.43144279 7.51771144,1.44696517 7.50557214,1.46616915 C7.49124378,1.48925373 7.45502488,1.48199005 7.39870647,1.44547264 C7.32368159,1.39641791 7.28676617,1.39422886 7.09313433,1.42895522 C6.9721393,1.45054726 6.82885572,1.49721393 6.77562189,1.53243781 C6.72189055,1.5678607 6.65144279,1.59661692 6.61840796,1.59701493 C6.58537313,1.59701493 6.56766169,1.6120398 6.57880597,1.63024876 C6.61303483,1.68537313 6.72845771,1.66716418 6.83731343,1.58995025 C6.95024876,1.50955224 7.3358209,1.46288557 7.39532338,1.52238806 C7.45552239,1.58258706 7.26676617,1.80587065 7.07223881,1.90477612 C6.97243781,1.95552239 6.88199005,2.01890547 6.8718408,2.04547264 C6.86169154,2.0720398 6.83243781,2.09383085 6.80696517,2.09383085 C6.78169154,2.09383085 6.76029851,2.11233831 6.759801,2.13512438 C6.75880597,2.18029851 6.49472637,2.32557214 6.41363184,2.32557214 C6.38616915,2.32557214 6.32248756,2.37323383 6.27253731,2.43144279 C6.06139303,2.67651741 6.04149254,2.68965174 5.8960199,2.6840796 L5.75681592,2.67870647 L5.86129353,2.58567164 C5.91860697,2.53412935 5.96577114,2.4840796 5.96577114,2.47393035 C5.96577114,2.43920398 5.82248756,2.53273632 5.71850746,2.63572139 C5.66089552,2.69253731 5.55771144,2.75621891 5.48915423,2.77661692 C5.40288557,2.80238806 5.37542289,2.80288557 5.4,2.77860697 C5.46169154,2.71711443 5.43860697,2.67701493 5.37502488,2.73442786 C5.27373134,2.82597015 5.26179104,2.7961194 5.34248756,2.65233831 C5.38447761,2.57701493 5.48119403,2.46457711 5.55701493,2.40208955 C5.63303483,2.33970149 5.71054726,2.24467662 5.72925373,2.19094527 C5.74915423,2.13482587 5.800199,2.07940299 5.85024876,2.06049751 C5.96199005,2.01800995 5.96567164,2.01850746 5.96567164,2.07820896 C5.96567164,2.14746269 6.06457711,2.18049751 6.10099502,2.12338308 C6.12189055,2.09054726 6.13034826,2.08915423 6.13084577,2.11880597 C6.13104478,2.14139303 6.14756219,2.1600995 6.1680597,2.1600995 C6.18895522,2.1600995 6.19721393,2.13074627 6.18726368,2.0920398 C6.17442786,2.04298507 6.18965174,2.01621891 6.24288557,1.9961194 C6.28298507,1.98079602 6.3359204,1.94437811 6.36049751,1.91522388 C6.38477612,1.88626866 6.4399005,1.86199005 6.48318408,1.86199005 C6.52666667,1.86199005 6.56169154,1.84865672 6.56169154,1.83233831 C6.56169154,1.81532338 6.51044776,1.81512438 6.43751244,1.8318408 C6.36945274,1.8481592 6.25094527,1.85253731 6.17512438,1.84159204 C6.0561194,1.82507463 6.01532338,1.83701493 5.88288557,1.92835821 C5.79810945,1.98636816 5.71890547,2.0240796 5.70656716,2.01164179 C5.69393035,1.99920398 5.71094527,1.96965174 5.74378109,1.94527363 C5.78437811,1.91562189 5.79164179,1.89402985 5.76656716,1.87850746 C5.70756219,1.84208955 5.83164179,1.72447761 5.90457711,1.7478607 C5.99393035,1.77631841 6.04159204,1.73472637 5.98477612,1.67810945 C5.95850746,1.6518408 5.92308458,1.63044776 5.90587065,1.63044776 C5.88835821,1.63044776 5.8558209,1.6080597 5.83323383,1.58089552 C5.78129353,1.51820896 5.61044776,1.51751244 5.50189055,1.57940299 C5.45621891,1.60537313 5.36825871,1.64985075 5.30636816,1.67850746 C5.2441791,1.70696517 5.13074627,1.78636816 5.05373134,1.85442786 C4.97651741,1.92218905 4.85114428,2.0281592 4.77462687,2.08955224 C4.69810945,2.15094527 4.61960199,2.2358209 4.60049751,2.27781095 C4.58139303,2.319801 4.519801,2.37323383 4.4639801,2.39661692 C4.4080597,2.41970149 4.31701493,2.47820896 4.26139303,2.52636816 C4.20547264,2.57472637 4.11731343,2.63641791 4.06487562,2.6638806 C3.98855721,2.70298507 3.9800995,2.71711443 4.02338308,2.73333333 C4.05303483,2.74497512 4.07751244,2.73960199 4.07751244,2.72189055 C4.07751244,2.70467662 4.09303483,2.68985075 4.11253731,2.68985075 C4.1320398,2.68985075 4.20238806,2.65263682 4.26975124,2.60676617 C4.33731343,2.56109453 4.39731343,2.53900498 4.40338308,2.55721393 C4.43303483,2.64587065 4.75462687,2.54119403 4.88119403,2.40099502 C4.91303483,2.36577114 4.97273632,2.339801 5.01363184,2.34338308 C5.05472637,2.34706468 5.11810945,2.33393035 5.15432836,2.31422886 C5.23154229,2.27243781 5.44069652,2.19472637 5.47810945,2.19402985 C5.49223881,2.19383085 5.48099502,2.22855721 5.45313433,2.27104478 C5.42547264,2.31333333 5.41034826,2.3560199 5.42029851,2.36606965 C5.43004975,2.3758209 5.38527363,2.42995025 5.32119403,2.48656716 C5.25661692,2.54288557 5.2038806,2.60437811 5.2038806,2.62288557 C5.2038806,2.64109453 5.14825871,2.67970149 5.080199,2.70835821 C4.94905473,2.76298507 4.80646766,2.87960199 4.80646766,2.93253731 C4.80646766,2.95024876 4.87303483,2.95661692 4.96288557,2.94636816 C5.09621891,2.93134328 5.11084577,2.93492537 5.06129353,2.97134328 C5.0041791,3.01313433 4.74139303,3.24925373 4.50597015,3.47084577 C4.44059701,3.5320398 4.36776119,3.64189055 4.34348259,3.71452736 C4.31940299,3.78766169 4.28885572,3.84039801 4.27572139,3.83233831 C4.26208955,3.8240796 4.23323383,3.86049751 4.21134328,3.91343284 C4.15253731,4.0558209 3.96378109,4.21880597 3.91422886,4.16945274 C3.88437811,4.1400995 3.880199,4.14368159 3.89572139,4.18497512 C3.91104478,4.2240796 3.88865672,4.24865672 3.81502488,4.27412935 C3.75910448,4.29353234 3.71373134,4.33263682 3.71373134,4.36089552 C3.71373134,4.38935323 3.69572139,4.4121393 3.67393035,4.4121393 C3.64457711,4.4121393 3.64378109,4.42189055 3.67154229,4.44955224 C3.71870647,4.49671642 3.68905473,4.57273632 3.58626866,4.6681592 C3.54159204,4.70945274 3.51701493,4.74348259 3.53134328,4.74348259 C3.54567164,4.74348259 3.51721393,4.78069652 3.4681592,4.82636816 C3.37004975,4.91552239 3.31781095,4.93104478 3.32756219,4.86646766 L3.32756219,4.86646766 Z M2.96595106,3.46746269 C2.98185106,3.40109453 2.97845106,3.37930348 2.95615106,3.40109453 C2.93805106,3.41910448 2.91225106,3.47880597 2.89955106,3.53323383 C2.88365106,3.599801 2.88735106,3.62169154 2.90935106,3.599801 C2.92765106,3.58159204 2.95325106,3.52208955 2.96595106,3.46746269 L2.96595106,3.46746269 Z M2.87750483,3.39920398 C2.88190483,3.35034826 2.87090483,3.32318408 2.85140483,3.33482587 C2.81280483,3.35890547 2.80650483,3.4839801 2.84460483,3.4839801 C2.85890483,3.48368159 2.87380483,3.44577114 2.87750483,3.39920398 L2.87750483,3.39920398 Z M3.23253731,3.08676617 C3.30298507,3.00905473 3.24517413,2.9961194 3.16865672,3.07243781 C3.11014925,3.13074627 3.10358209,3.15283582 3.14457711,3.15283582 C3.160199,3.15283582 3.19950249,3.12298507 3.23253731,3.08676617 L3.23253731,3.08676617 Z M3.43154229,2.78861517 C3.45751244,2.74641517 3.41383085,2.74641517 3.34865672,2.78861517 C3.30567164,2.81621517 3.30666667,2.82111517 3.35492537,2.82161517 C3.38587065,2.82181517 3.4200995,2.80711517 3.43154229,2.78861517 L3.43154229,2.78861517 Z M3.75393035,2.58268657 C3.81104478,2.52945274 3.84089552,2.4760199 3.82656716,2.45323383 C3.81054726,2.42746269 3.81661692,2.42288557 3.84477612,2.44039801 C3.87323383,2.45761194 3.88218905,2.45134328 3.8719403,2.42049751 C3.85223881,2.36169154 3.80467662,2.37094527 3.76258706,2.44208955 C3.74457711,2.47293532 3.68875622,2.54 3.63840796,2.59104478 C3.58835821,2.64228856 3.54726368,2.70208955 3.54726368,2.7238806 C3.54736318,2.76686567 3.580199,2.74467662 3.75393035,2.58268657 L3.75393035,2.58268657 Z M6.67857022,1.86165771 C6.66707022,1.84335771 6.64297022,1.82845771 6.62437022,1.82845771 C6.60627022,1.82845771 6.60047022,1.84335771 6.61167022,1.86165771 C6.62287022,1.87995771 6.64727022,1.89505771 6.66567022,1.89505771 C6.68407022,1.89505771 6.68987022,1.87995771 6.67857022,1.86165771 L6.67857022,1.86165771 Z M8.04756219,1.46477612 C8.09522388,1.46527363 8.0959204,1.46965174 8.05293532,1.49731343 C8.00965174,1.52527363 8.01014925,1.52965174 8.05751244,1.52985075 C8.08666667,1.53034826 8.12865672,1.50945274 8.15034826,1.48348259 C8.18099502,1.44626866 8.1761194,1.43273632 8.12557214,1.41641791 C8.03840796,1.38875622 7.95313433,1.42686567 7.95621891,1.49243781 C7.95791045,1.52716418 7.96497512,1.53154229 7.97542289,1.50557214 C7.98497512,1.48248756 8.01721393,1.46447761 8.04756219,1.46477612 L8.04756219,1.46477612 Z M7.06766169,1.16616915 C7.09562189,1.16616915 7.12696517,1.14378109 7.13741294,1.11661692 C7.16318408,1.05004975 7.13034826,1.05422886 6.99940299,1.13363184 C6.93482587,1.17303483 6.899801,1.21552239 6.91343284,1.23781095 C6.92975124,1.26378109 6.94915423,1.25870647 6.97661692,1.22079602 C6.99890547,1.19074627 7.03970149,1.16616915 7.06766169,1.16616915 L7.06766169,1.16616915 Z M7.44036089,0.868524378 C7.45186089,0.850224378 7.44626089,0.835124378 7.42766089,0.835124378 C7.40936089,0.835124378 7.38516089,0.850224378 7.37366089,0.868524378 C7.36216089,0.886624378 7.36826089,0.901724378 7.38656089,0.901724378 C7.40486089,0.901724378 7.42916089,0.886624378 7.44036089,0.868524378 L7.44036089,0.868524378 Z M7.72228657,0.603449751 C7.72228657,0.585149751 7.69978657,0.570049751 7.67248657,0.570049751 C7.64518657,0.570049751 7.62268657,0.585149751 7.62268657,0.603449751 C7.62268657,0.621549751 7.64518657,0.636649751 7.67248657,0.636649751 C7.69978657,0.636649751 7.72228657,0.621549751 7.72228657,0.603449751 L7.72228657,0.603449751 Z M6.92696517,4.49283582 C6.92696517,4.46487562 6.90437811,4.43353234 6.87721393,4.42308458 C6.81283582,4.39830846 6.81283582,4.34507463 6.87721393,4.34507463 C6.90437811,4.34507463 6.92696517,4.32248756 6.92696517,4.29552239 C6.92696517,4.2680597 6.91114428,4.24577114 6.89154229,4.24577114 C6.87233831,4.24577114 6.86557214,4.23164179 6.87621891,4.21422886 C6.88686567,4.19681592 6.920199,4.1918408 6.95004975,4.20328358 C6.99253731,4.21960199 6.99910448,4.21084577 6.98119403,4.16318408 C6.95522388,4.0959204 7.00577114,4.04855721 7.10457711,4.04776119 C7.15024876,4.04726368 7.16169154,4.06427861 7.14905473,4.11333333 C7.13572139,4.16437811 7.1480597,4.1799005 7.20318408,4.1800995 C7.24228856,4.1800995 7.33174129,4.19562189 7.40069652,4.21512438 C7.51661692,4.24746269 7.52606965,4.25880597 7.51681592,4.35532338 C7.50348259,4.49253731 7.40049751,4.54308458 7.13373134,4.5438806 C6.96975124,4.54358209 6.92696517,4.53293532 6.92696517,4.49283582 L6.92696517,4.49283582 Z M11.4876617,4.22338308 C11.44199,4.17791045 11.4680597,4.11313433 11.5318408,4.11313433 C11.5760199,4.11313433 11.598209,4.13522388 11.598209,4.17950249 C11.5983085,4.24308458 11.5333333,4.26885572 11.4876617,4.22338308 L11.4876617,4.22338308 Z M9.68099502,3.29393035 C9.66029851,3.25502488 9.64358209,3.200199 9.64358209,3.17154229 C9.64358209,3.14338308 9.62855721,3.119801 9.61034826,3.119801 C9.57144279,3.119801 9.56686567,2.98885572 9.60427861,2.93004975 C9.61930348,2.90646766 9.67472637,2.89502488 9.73621891,2.90288557 C9.79452736,2.91044776 9.84238806,2.90308458 9.84238806,2.88736318 C9.84238806,2.85651741 10.0651741,2.8679602 10.0977114,2.90049751 C10.1302488,2.93253731 10.0333333,3.02467662 9.98616915,3.00636816 C9.92517413,2.98308458 9.93004975,3.05253731 9.99462687,3.12348259 C10.0563184,3.19174129 10.0327363,3.25024876 9.94606965,3.24348259 C9.90477612,3.24029851 9.88995025,3.21970149 9.90039801,3.17930348 C9.92716418,3.07771144 9.86248756,3.11442786 9.78885572,3.24248756 C9.72139303,3.359801 9.71751244,3.36179104 9.68099502,3.29393035 L9.68099502,3.29393035 Z M5.22826483,2.85048006 C5.25076483,2.82778006 5.27736483,2.81778006 5.28756483,2.82798006 C5.29776483,2.83818006 5.27976483,2.85678006 5.24656483,2.86928006 C5.19946483,2.88768006 5.19586483,2.88378006 5.22826483,2.85048006 L5.22826483,2.85048006 Z M12.0945274,2.80427861 C12.0336318,2.73114428 12.0682587,2.72268657 12.1366169,2.79402985 C12.1683582,2.82756219 12.1814925,2.85472637 12.1654726,2.85472637 C12.1492537,2.85472637 12.1173134,2.8321393 12.0945274,2.80427861 L12.0945274,2.80427861 Z M10.6146269,2.80059701 C10.5872637,2.78945274 10.5918408,2.76736318 10.6311443,2.72776119 C10.6703483,2.6881592 10.6985075,2.68109453 10.7248756,2.70497512 C10.7457711,2.72368159 10.7550249,2.7521393 10.7452736,2.7681592 C10.7353234,2.7841791 10.7481592,2.79024876 10.7734328,2.78149254 C10.8025871,2.77154229 10.8157214,2.72825871 10.8091542,2.66149254 C10.7989055,2.56039801 10.801393,2.55820896 10.8890547,2.59154229 C10.9544279,2.61651741 10.9862687,2.61562189 11.0030846,2.5878607 C11.019801,2.56039801 11.0329353,2.5599005 11.0492537,2.58636816 C11.0618905,2.60656716 11.0553234,2.62308458 11.0348259,2.62308458 C11.0143284,2.62308458 11.0069652,2.63810945 11.0183085,2.65631841 C11.0297512,2.67432836 11.0193035,2.68955224 10.9955224,2.68985075 C10.9639801,2.69034826 10.9656716,2.69910448 11.0016915,2.72238806 C11.0421891,2.74865672 11.0378109,2.75472637 10.9793035,2.75522388 C10.9400995,2.75542289 10.9002985,2.73701493 10.8910448,2.71412935 C10.880398,2.68835821 10.8733333,2.69303483 10.8716418,2.72726368 C10.8680597,2.80686567 10.7282587,2.84676617 10.6146269,2.80059701 L10.6146269,2.80059701 Z M4.55532338,2.46178676 C4.56527363,2.44568676 4.60706468,2.42398676 4.64835821,2.41348676 C4.72079602,2.39538676 4.72119403,2.39668676 4.65930348,2.44278676 C4.5878607,2.49618676 4.52736318,2.50738676 4.55532338,2.46178676 L4.55532338,2.46178676 Z M5.40258706,2.12642612 C5.46766169,2.08422612 5.51164179,2.08422612 5.48547264,2.12642612 C5.47432836,2.14452612 5.44,2.15962612 5.40915423,2.15942612 C5.36059701,2.15882612 5.3599005,2.15442612 5.40258706,2.12642612 L5.40258706,2.12642612 Z M5.56825871,1.96096219 C5.56825871,1.94286219 5.59095871,1.92756219 5.61825871,1.92756219 C5.64555871,1.92756219 5.66805871,1.94296219 5.66805871,1.96096219 C5.66805871,1.97896219 5.64555871,1.99436219 5.61825871,1.99436219 C5.59075871,1.99446219 5.56825871,1.97906219 5.56825871,1.96096219 L5.56825871,1.96096219 Z M8.52598542,1.37785625 C8.53718542,1.36685625 8.56578542,1.36565625 8.58998542,1.37515625 C8.61608542,1.38565625 8.60858542,1.39375625 8.56968542,1.39515625 C8.53448542,1.39685625 8.51498542,1.38885625 8.52598542,1.37785625 L8.52598542,1.37785625 Z M8.3038806,1.33295785 C8.26865672,1.32045785 8.25383085,1.30265785 8.27084577,1.29335785 C8.31482587,1.26895785 8.60169154,1.25795785 8.57840796,1.28135785 C8.53781095,1.32215785 8.36507463,1.35465785 8.3038806,1.33295785 L8.3038806,1.33295785 Z M8.52517413,1.1777776 C8.45452736,1.1491776 8.47950249,1.0947776 8.55840796,1.1059776 C8.59920398,1.1118776 8.62905473,1.1318776 8.62447761,1.1498776 C8.61462687,1.1903776 8.58059701,1.1996776 8.52517413,1.1777776 L8.52517413,1.1777776 Z M8.05323383,1.15522388 C8.05323383,1.14477612 8.08696517,1.09960199 8.12855721,1.05542289 C8.18298507,0.997114428 8.25144279,0.968955224 8.37313433,0.9560199 C8.46646766,0.946069652 8.58159204,0.928059701 8.62915423,0.916218905 C8.69353234,0.899900498 8.71562189,0.907263682 8.71562189,0.94318408 C8.71562189,1.00925373 8.62865672,1.07870647 8.58228856,1.05004975 C8.56208955,1.03741294 8.47562189,1.03791045 8.39064677,1.05124378 C8.26726368,1.07044776 8.24905473,1.08059701 8.30199005,1.10199005 C8.36199005,1.12626866 8.36049751,1.12875622 8.28547264,1.13134328 C8.239801,1.13283582 8.16915423,1.14298507 8.1280597,1.15393035 C8.08666667,1.16497512 8.05323383,1.16547264 8.05323383,1.15522388 L8.05323383,1.15522388 Z M11.2248756,0.548194543 C11.2472637,0.539194543 11.2922388,0.538694543 11.3242786,0.546994543 C11.3565174,0.555494543 11.3381095,0.562894543 11.2834826,0.563594543 C11.2287562,0.564294543 11.2022886,0.557494543 11.2248756,0.548194543 L11.2248756,0.548194543 Z" id="Shape" fill="#CCCCCC"></path>
            </g>
        </g>
    </g>
</svg>